<mxfile host="app.diagrams.net" modified="2023-03-27T09:42:28.339Z" agent="Mozilla/5.0 (Windows NT 10.0; Win64; x64) AppleWebKit/537.36 (KHTML, like Gecko) Chrome/111.0.0.0 Safari/537.36" etag="keK306H2epqv6NOqkyti" version="21.1.1" type="github">
  <diagram name="第 1 页" id="keSh9e9FwDwSTcnrrhvz">
    <mxGraphModel dx="7259" dy="-1849" grid="1" gridSize="10" guides="1" tooltips="1" connect="1" arrows="1" fold="1" page="1" pageScale="1" pageWidth="827" pageHeight="1169" math="0" shadow="0">
      <root>
        <mxCell id="0" />
        <mxCell id="1" parent="0" />
        <mxCell id="hX7-4YJbFAhG8RBtURKL-1" value="&lt;font style=&quot;font-size: 14px;&quot;&gt;INPUT_SPIKE&lt;/font&gt;" style="rounded=1;whiteSpace=wrap;html=1;fontSize=16;fontStyle=1" vertex="1" parent="1">
          <mxGeometry x="1077" y="4550" width="115.12" height="50" as="geometry" />
        </mxCell>
        <mxCell id="hX7-4YJbFAhG8RBtURKL-2" value="" style="rounded=1;whiteSpace=wrap;html=1;fontSize=16;fontStyle=1" vertex="1" parent="1">
          <mxGeometry x="406" y="4360" width="854" height="460" as="geometry" />
        </mxCell>
        <mxCell id="hX7-4YJbFAhG8RBtURKL-3" value="STDP_CONTROLLER" style="rounded=1;whiteSpace=wrap;html=1;fontSize=16;fontStyle=1" vertex="1" parent="1">
          <mxGeometry x="740" y="4425.75" width="180" height="350" as="geometry" />
        </mxCell>
        <mxCell id="hX7-4YJbFAhG8RBtURKL-4" value="on_pre_updata" style="rounded=1;whiteSpace=wrap;html=1;fontSize=16;fontStyle=1" vertex="1" parent="1">
          <mxGeometry x="450" y="4431.75" width="180" height="140" as="geometry" />
        </mxCell>
        <mxCell id="hX7-4YJbFAhG8RBtURKL-5" value="on_post_updata" style="rounded=1;whiteSpace=wrap;html=1;fontSize=16;fontStyle=1" vertex="1" parent="1">
          <mxGeometry x="450" y="4640.75" width="178.88" height="140" as="geometry" />
        </mxCell>
        <mxCell id="hX7-4YJbFAhG8RBtURKL-6" value="" style="shape=flexArrow;endArrow=classic;startArrow=classic;html=1;rounded=0;fontSize=16;fontStyle=1" edge="1" parent="1">
          <mxGeometry width="100" height="100" relative="1" as="geometry">
            <mxPoint x="629.12" y="4501.13" as="sourcePoint" />
            <mxPoint x="739.12" y="4501.13" as="targetPoint" />
          </mxGeometry>
        </mxCell>
        <mxCell id="hX7-4YJbFAhG8RBtURKL-7" value="" style="shape=flexArrow;endArrow=classic;startArrow=classic;html=1;rounded=0;fontSize=16;fontStyle=1" edge="1" parent="1">
          <mxGeometry width="100" height="100" relative="1" as="geometry">
            <mxPoint x="629.12" y="4710.12" as="sourcePoint" />
            <mxPoint x="739.12" y="4710.12" as="targetPoint" />
          </mxGeometry>
        </mxCell>
        <mxCell id="hX7-4YJbFAhG8RBtURKL-8" value="&lt;font color=&quot;#0000ff&quot;&gt;STDP_LEARNING&lt;/font&gt;" style="text;html=1;strokeColor=none;fillColor=none;align=center;verticalAlign=middle;whiteSpace=wrap;rounded=0;fontSize=17;fontStyle=1" vertex="1" parent="1">
          <mxGeometry x="1120" y="4380" width="58.88" height="30" as="geometry" />
        </mxCell>
        <mxCell id="hX7-4YJbFAhG8RBtURKL-9" value="e_trace" style="rounded=1;whiteSpace=wrap;html=1;fontSize=16;fontStyle=1" vertex="1" parent="1">
          <mxGeometry x="1031.48" y="4442.38" width="206.16" height="118.25" as="geometry" />
        </mxCell>
        <mxCell id="hX7-4YJbFAhG8RBtURKL-10" value="w_overflow" style="rounded=1;whiteSpace=wrap;html=1;fontSize=16;fontStyle=1" vertex="1" parent="1">
          <mxGeometry x="1031.48" y="4651.62" width="206.16" height="118.25" as="geometry" />
        </mxCell>
        <mxCell id="hX7-4YJbFAhG8RBtURKL-11" value="" style="shape=flexArrow;endArrow=classic;startArrow=classic;html=1;rounded=0;fontSize=16;fontStyle=1" edge="1" parent="1">
          <mxGeometry width="100" height="100" relative="1" as="geometry">
            <mxPoint x="921.12" y="4501.13" as="sourcePoint" />
            <mxPoint x="1031.12" y="4501.13" as="targetPoint" />
          </mxGeometry>
        </mxCell>
        <mxCell id="hX7-4YJbFAhG8RBtURKL-12" value="" style="shape=flexArrow;endArrow=classic;startArrow=classic;html=1;rounded=0;fontSize=16;fontStyle=1" edge="1" parent="1">
          <mxGeometry width="100" height="100" relative="1" as="geometry">
            <mxPoint x="921.12" y="4710.12" as="sourcePoint" />
            <mxPoint x="1031.12" y="4710.12" as="targetPoint" />
          </mxGeometry>
        </mxCell>
        <mxCell id="hX7-4YJbFAhG8RBtURKL-13" value="" style="shape=flexArrow;endArrow=classic;startArrow=classic;html=1;rounded=0;fillColor=#FFFFFF;" edge="1" parent="1">
          <mxGeometry width="100" height="100" relative="1" as="geometry">
            <mxPoint x="829.33" y="4410" as="sourcePoint" />
            <mxPoint x="830" y="4320" as="targetPoint" />
          </mxGeometry>
        </mxCell>
        <mxCell id="hX7-4YJbFAhG8RBtURKL-14" value="" style="shape=flexArrow;endArrow=classic;startArrow=classic;html=1;rounded=0;fillColor=#FFFFFF;" edge="1" parent="1">
          <mxGeometry width="100" height="100" relative="1" as="geometry">
            <mxPoint x="832" y="4860" as="sourcePoint" />
            <mxPoint x="832.33" y="4780.75" as="targetPoint" />
          </mxGeometry>
        </mxCell>
        <mxCell id="hX7-4YJbFAhG8RBtURKL-15" value="&lt;font style=&quot;font-size: 18px;&quot;&gt;&lt;b&gt;SNN_CONTROLLER&lt;/b&gt;&lt;/font&gt;" style="text;html=1;strokeColor=none;fillColor=none;align=center;verticalAlign=middle;whiteSpace=wrap;rounded=0;" vertex="1" parent="1">
          <mxGeometry x="800" y="4290" width="60" height="30" as="geometry" />
        </mxCell>
        <mxCell id="hX7-4YJbFAhG8RBtURKL-16" value="&lt;span style=&quot;font-size: 18px;&quot;&gt;&lt;b&gt;WEIGTH_MEMORY&lt;/b&gt;&lt;/span&gt;" style="text;html=1;strokeColor=none;fillColor=none;align=center;verticalAlign=middle;whiteSpace=wrap;rounded=0;" vertex="1" parent="1">
          <mxGeometry x="810" y="4866" width="60" height="30" as="geometry" />
        </mxCell>
        <mxCell id="hX7-4YJbFAhG8RBtURKL-17" value="" style="rounded=1;whiteSpace=wrap;html=1;fontSize=16;fontStyle=1;fillColor=none;" vertex="1" parent="1">
          <mxGeometry x="750" y="5249" width="340" height="260" as="geometry" />
        </mxCell>
        <mxCell id="hX7-4YJbFAhG8RBtURKL-18" value="" style="rounded=1;whiteSpace=wrap;html=1;fontSize=16;fontStyle=1;fillColor=none;" vertex="1" parent="1">
          <mxGeometry x="470" y="5180" width="650" height="400" as="geometry" />
        </mxCell>
        <mxCell id="hX7-4YJbFAhG8RBtURKL-19" value="&lt;font color=&quot;#0000ff&quot;&gt;DENDRITE_COMPUTE&lt;/font&gt;" style="text;html=1;strokeColor=none;fillColor=none;align=center;verticalAlign=middle;whiteSpace=wrap;rounded=0;fontSize=17;fontStyle=1" vertex="1" parent="1">
          <mxGeometry x="972.6" y="5190" width="58.88" height="30" as="geometry" />
        </mxCell>
        <mxCell id="hX7-4YJbFAhG8RBtURKL-20" value="COMPUTE_CTRL" style="rounded=1;whiteSpace=wrap;html=1;fontSize=16;fontStyle=1" vertex="1" parent="1">
          <mxGeometry x="510" y="5234" width="180" height="290" as="geometry" />
        </mxCell>
        <mxCell id="hX7-4YJbFAhG8RBtURKL-21" value="&lt;b&gt;&lt;font style=&quot;font-size: 16px;&quot;&gt;PE_CORE&lt;/font&gt;&lt;/b&gt;" style="text;html=1;strokeColor=none;fillColor=none;align=center;verticalAlign=middle;whiteSpace=wrap;rounded=0;" vertex="1" parent="1">
          <mxGeometry x="990" y="5255" width="60" height="30" as="geometry" />
        </mxCell>
        <mxCell id="hX7-4YJbFAhG8RBtURKL-22" value="FIX_POINT&lt;br&gt;ADDR" style="rounded=0;whiteSpace=wrap;html=1;" vertex="1" parent="1">
          <mxGeometry x="942.04" y="5289" width="120" height="80" as="geometry" />
        </mxCell>
        <mxCell id="hX7-4YJbFAhG8RBtURKL-23" value="" style="endArrow=none;dashed=1;html=1;dashPattern=1 3;strokeWidth=6;rounded=0;" edge="1" parent="1">
          <mxGeometry width="50" height="50" relative="1" as="geometry">
            <mxPoint x="920" y="5355" as="sourcePoint" />
            <mxPoint x="920" y="5285" as="targetPoint" />
          </mxGeometry>
        </mxCell>
        <mxCell id="hX7-4YJbFAhG8RBtURKL-24" value="FIX_POINT&lt;br&gt;MULTIPLIER" style="rounded=0;whiteSpace=wrap;html=1;" vertex="1" parent="1">
          <mxGeometry x="942.04" y="5404" width="120" height="80" as="geometry" />
        </mxCell>
        <mxCell id="hX7-4YJbFAhG8RBtURKL-25" value="SHIFT&lt;br&gt;REGISTER" style="rounded=0;whiteSpace=wrap;html=1;" vertex="1" parent="1">
          <mxGeometry x="780" y="5404" width="120" height="80" as="geometry" />
        </mxCell>
        <mxCell id="hX7-4YJbFAhG8RBtURKL-26" value="SHIFT&lt;br&gt;REGISTER" style="rounded=0;whiteSpace=wrap;html=1;" vertex="1" parent="1">
          <mxGeometry x="780" y="5289" width="120" height="80" as="geometry" />
        </mxCell>
        <mxCell id="hX7-4YJbFAhG8RBtURKL-27" value="" style="endArrow=none;dashed=1;html=1;dashPattern=1 3;strokeWidth=6;rounded=0;" edge="1" parent="1">
          <mxGeometry width="50" height="50" relative="1" as="geometry">
            <mxPoint x="920.33" y="5467" as="sourcePoint" />
            <mxPoint x="920.33" y="5397" as="targetPoint" />
          </mxGeometry>
        </mxCell>
        <mxCell id="hX7-4YJbFAhG8RBtURKL-28" value="" style="endArrow=none;dashed=1;html=1;dashPattern=1 3;strokeWidth=6;rounded=0;" edge="1" parent="1">
          <mxGeometry x="750" y="5225" width="50" height="50" relative="1" as="geometry">
            <mxPoint x="870" y="5389" as="sourcePoint" />
            <mxPoint x="810" y="5389" as="targetPoint" />
          </mxGeometry>
        </mxCell>
        <mxCell id="hX7-4YJbFAhG8RBtURKL-29" value="" style="endArrow=none;dashed=1;html=1;dashPattern=1 3;strokeWidth=6;rounded=0;" edge="1" parent="1">
          <mxGeometry x="750" y="5225" width="50" height="50" relative="1" as="geometry">
            <mxPoint x="1031" y="5390" as="sourcePoint" />
            <mxPoint x="971" y="5390" as="targetPoint" />
          </mxGeometry>
        </mxCell>
        <mxCell id="hX7-4YJbFAhG8RBtURKL-30" value="" style="shape=flexArrow;endArrow=classic;html=1;rounded=0;entryX=0.478;entryY=0.348;entryDx=0;entryDy=0;entryPerimeter=0;exitX=0.373;exitY=0.348;exitDx=0;exitDy=0;exitPerimeter=0;fillColor=#FFFFFF;" edge="1" parent="1">
          <mxGeometry width="50" height="50" relative="1" as="geometry">
            <mxPoint x="693.9099999999999" y="5330.080000000001" as="sourcePoint" />
            <mxPoint x="764.2599999999993" y="5330.080000000001" as="targetPoint" />
          </mxGeometry>
        </mxCell>
        <mxCell id="hX7-4YJbFAhG8RBtURKL-31" value="" style="shape=flexArrow;endArrow=classic;html=1;rounded=0;exitX=0.373;exitY=0.348;exitDx=0;exitDy=0;exitPerimeter=0;fillColor=#FFFFFF;" edge="1" parent="1">
          <mxGeometry width="50" height="50" relative="1" as="geometry">
            <mxPoint x="765.6499999999999" y="5450.000000000001" as="sourcePoint" />
            <mxPoint x="700" y="5450" as="targetPoint" />
          </mxGeometry>
        </mxCell>
        <mxCell id="hX7-4YJbFAhG8RBtURKL-32" value="" style="shape=flexArrow;endArrow=classic;startArrow=classic;html=1;rounded=0;fontSize=16;fontStyle=1;fillColor=#FFFFFF;" edge="1" parent="1">
          <mxGeometry width="100" height="100" relative="1" as="geometry">
            <mxPoint x="387" y="5304" as="sourcePoint" />
            <mxPoint x="497" y="5304" as="targetPoint" />
          </mxGeometry>
        </mxCell>
        <mxCell id="hX7-4YJbFAhG8RBtURKL-33" value="&lt;font style=&quot;font-size: 18px;&quot;&gt;&lt;b&gt;SNN_CONTROLLER&lt;/b&gt;&lt;/font&gt;" style="text;html=1;strokeColor=none;fillColor=none;align=center;verticalAlign=middle;whiteSpace=wrap;rounded=0;" vertex="1" parent="1">
          <mxGeometry x="263" y="5289" width="60" height="30" as="geometry" />
        </mxCell>
        <mxCell id="hX7-4YJbFAhG8RBtURKL-34" value="" style="shape=flexArrow;endArrow=classic;startArrow=classic;html=1;rounded=0;fontSize=16;fontStyle=1;fillColor=#FFFFFF;" edge="1" parent="1">
          <mxGeometry width="100" height="100" relative="1" as="geometry">
            <mxPoint x="390" y="5430" as="sourcePoint" />
            <mxPoint x="500" y="5430" as="targetPoint" />
          </mxGeometry>
        </mxCell>
        <mxCell id="hX7-4YJbFAhG8RBtURKL-35" value="&lt;span style=&quot;font-size: 18px;&quot;&gt;&lt;b&gt;WEIGTH_MEMORY&lt;/b&gt;&lt;/span&gt;" style="text;html=1;strokeColor=none;fillColor=none;align=center;verticalAlign=middle;whiteSpace=wrap;rounded=0;" vertex="1" parent="1">
          <mxGeometry x="273" y="5420" width="60" height="30" as="geometry" />
        </mxCell>
        <mxCell id="hX7-4YJbFAhG8RBtURKL-36" value="" style="rounded=1;whiteSpace=wrap;html=1;" vertex="1" parent="1">
          <mxGeometry x="72.5" y="5903.5" width="375" height="256.5" as="geometry" />
        </mxCell>
        <mxCell id="hX7-4YJbFAhG8RBtURKL-37" value="FIFO" style="rounded=1;whiteSpace=wrap;html=1;fontSize=16;fontStyle=1" vertex="1" parent="1">
          <mxGeometry x="260" y="5959.25" width="150" height="130.75" as="geometry" />
        </mxCell>
        <mxCell id="hX7-4YJbFAhG8RBtURKL-38" value="INF_CTRL" style="rounded=1;whiteSpace=wrap;html=1;fontSize=16;fontStyle=1" vertex="1" parent="1">
          <mxGeometry x="96.25" y="5931.75" width="93.75" height="188.25" as="geometry" />
        </mxCell>
        <mxCell id="hX7-4YJbFAhG8RBtURKL-39" value="" style="shape=flexArrow;endArrow=classic;startArrow=classic;html=1;rounded=0;fontSize=16;fontStyle=1;fillColor=default;" edge="1" parent="1">
          <mxGeometry width="100" height="100" relative="1" as="geometry">
            <mxPoint x="142.77999999999997" y="5930" as="sourcePoint" />
            <mxPoint x="143.19" y="5860" as="targetPoint" />
          </mxGeometry>
        </mxCell>
        <mxCell id="hX7-4YJbFAhG8RBtURKL-40" value="&lt;b&gt;&lt;font color=&quot;#0000ff&quot; style=&quot;font-size: 16px;&quot;&gt;INTERFACE&lt;/font&gt;&lt;/b&gt;" style="text;html=1;strokeColor=none;fillColor=none;align=center;verticalAlign=middle;whiteSpace=wrap;rounded=0;" vertex="1" parent="1">
          <mxGeometry x="300" y="5903.5" width="60" height="30" as="geometry" />
        </mxCell>
        <mxCell id="hX7-4YJbFAhG8RBtURKL-41" value="" style="shape=flexArrow;endArrow=classic;startArrow=classic;html=1;rounded=0;fontSize=16;fontStyle=1;fillColor=default;entryX=0;entryY=0.5;entryDx=0;entryDy=0;exitX=1;exitY=0.5;exitDx=0;exitDy=0;" edge="1" parent="1" source="hX7-4YJbFAhG8RBtURKL-38" target="hX7-4YJbFAhG8RBtURKL-37">
          <mxGeometry width="100" height="100" relative="1" as="geometry">
            <mxPoint x="225.12" y="6110" as="sourcePoint" />
            <mxPoint x="225.53000000000003" y="6040" as="targetPoint" />
          </mxGeometry>
        </mxCell>
        <mxCell id="hX7-4YJbFAhG8RBtURKL-42" value="" style="shape=flexArrow;endArrow=classic;startArrow=classic;html=1;rounded=0;fontSize=16;fontStyle=1;fillColor=default;entryX=0.5;entryY=1;entryDx=0;entryDy=0;" edge="1" parent="1" target="hX7-4YJbFAhG8RBtURKL-38">
          <mxGeometry width="100" height="100" relative="1" as="geometry">
            <mxPoint x="143" y="6200" as="sourcePoint" />
            <mxPoint x="138.53000000000003" y="6241.75" as="targetPoint" />
          </mxGeometry>
        </mxCell>
        <mxCell id="hX7-4YJbFAhG8RBtURKL-43" value="&lt;b&gt;&lt;font style=&quot;font-size: 20px;&quot;&gt;TRANS_CTRL&lt;/font&gt;&lt;/b&gt;" style="text;html=1;strokeColor=none;fillColor=none;align=center;verticalAlign=middle;whiteSpace=wrap;rounded=0;" vertex="1" parent="1">
          <mxGeometry x="113.13" y="5830" width="60" height="30" as="geometry" />
        </mxCell>
        <mxCell id="hX7-4YJbFAhG8RBtURKL-44" value="&lt;b&gt;&lt;font style=&quot;font-size: 20px;&quot;&gt;SNN_CTRL&lt;/font&gt;&lt;/b&gt;" style="text;html=1;strokeColor=none;fillColor=none;align=center;verticalAlign=middle;whiteSpace=wrap;rounded=0;" vertex="1" parent="1">
          <mxGeometry x="125.11999999999999" y="6200" width="60" height="30" as="geometry" />
        </mxCell>
        <mxCell id="hX7-4YJbFAhG8RBtURKL-45" value="" style="rounded=1;whiteSpace=wrap;html=1;fontSize=16;fontStyle=1" vertex="1" parent="1">
          <mxGeometry x="-490" y="4350" width="420" height="540" as="geometry" />
        </mxCell>
        <mxCell id="hX7-4YJbFAhG8RBtURKL-46" value="&lt;font color=&quot;#0000ff&quot;&gt;TRANS_CTRL&lt;/font&gt;" style="rounded=1;whiteSpace=wrap;html=1;fontSize=16;fontStyle=1" vertex="1" parent="1">
          <mxGeometry x="-470" y="4400" width="386.25" height="60" as="geometry" />
        </mxCell>
        <mxCell id="hX7-4YJbFAhG8RBtURKL-47" value="" style="rounded=1;whiteSpace=wrap;html=1;" vertex="1" parent="1">
          <mxGeometry x="-467.5" y="4503.5" width="375" height="356.5" as="geometry" />
        </mxCell>
        <mxCell id="hX7-4YJbFAhG8RBtURKL-48" value="FIFO" style="rounded=1;whiteSpace=wrap;html=1;fontSize=16;fontStyle=1" vertex="1" parent="1">
          <mxGeometry x="-316.16" y="4640" width="206.16" height="73.25" as="geometry" />
        </mxCell>
        <mxCell id="hX7-4YJbFAhG8RBtURKL-49" value="INF_CTRL" style="rounded=1;whiteSpace=wrap;html=1;fontSize=16;fontStyle=1" vertex="1" parent="1">
          <mxGeometry x="-443.75" y="4531.75" width="93.75" height="310" as="geometry" />
        </mxCell>
        <mxCell id="hX7-4YJbFAhG8RBtURKL-50" value="&lt;font style=&quot;font-size: 11px;&quot;&gt;OUTPUT_SPIKE&lt;/font&gt;" style="rounded=1;whiteSpace=wrap;html=1;fontSize=11;fontStyle=1" vertex="1" parent="1">
          <mxGeometry x="-204" y="4540" width="100" height="40" as="geometry" />
        </mxCell>
        <mxCell id="hX7-4YJbFAhG8RBtURKL-51" value="" style="shape=flexArrow;endArrow=classic;startArrow=classic;html=1;rounded=0;fontSize=16;fontStyle=1;fillColor=default;" edge="1" parent="1">
          <mxGeometry width="100" height="100" relative="1" as="geometry">
            <mxPoint x="-398" y="4530" as="sourcePoint" />
            <mxPoint x="-397.59" y="4460" as="targetPoint" />
          </mxGeometry>
        </mxCell>
        <mxCell id="hX7-4YJbFAhG8RBtURKL-52" value="" style="shape=flexArrow;endArrow=classic;startArrow=classic;html=1;rounded=0;fontSize=11;fontStyle=1;fillColor=default;" edge="1" parent="1">
          <mxGeometry width="100" height="100" relative="1" as="geometry">
            <mxPoint x="-150" y="4540" as="sourcePoint" />
            <mxPoint x="-150" y="4460" as="targetPoint" />
          </mxGeometry>
        </mxCell>
        <mxCell id="hX7-4YJbFAhG8RBtURKL-53" value="" style="shape=flexArrow;endArrow=classic;startArrow=classic;html=1;rounded=0;fontSize=11;fontStyle=1;fillColor=default;exitX=0.812;exitY=-0.013;exitDx=0;exitDy=0;exitPerimeter=0;" edge="1" parent="1">
          <mxGeometry width="100" height="100" relative="1" as="geometry">
            <mxPoint x="-148.75808000000052" y="4640.047750000001" as="sourcePoint" />
            <mxPoint x="-150" y="4581" as="targetPoint" />
          </mxGeometry>
        </mxCell>
        <mxCell id="hX7-4YJbFAhG8RBtURKL-54" value="&lt;font style=&quot;font-size: 14px;&quot;&gt;TRANS_SPIKE&lt;/font&gt;" style="rounded=1;whiteSpace=wrap;html=1;fontSize=16;fontStyle=1" vertex="1" parent="1">
          <mxGeometry x="-316.16" y="4780" width="206.16" height="50" as="geometry" />
        </mxCell>
        <mxCell id="hX7-4YJbFAhG8RBtURKL-55" value="&lt;font style=&quot;font-size: 11px;&quot;&gt;INPUT_SPIKE&lt;/font&gt;" style="rounded=1;whiteSpace=wrap;html=1;fontSize=11;fontStyle=1" vertex="1" parent="1">
          <mxGeometry x="-324" y="4540" width="100" height="40" as="geometry" />
        </mxCell>
        <mxCell id="hX7-4YJbFAhG8RBtURKL-56" value="" style="shape=flexArrow;endArrow=classic;startArrow=classic;html=1;rounded=0;fontSize=11;fontStyle=1;fillColor=default;" edge="1" parent="1">
          <mxGeometry width="100" height="100" relative="1" as="geometry">
            <mxPoint x="-272" y="4540" as="sourcePoint" />
            <mxPoint x="-272" y="4460" as="targetPoint" />
          </mxGeometry>
        </mxCell>
        <mxCell id="hX7-4YJbFAhG8RBtURKL-57" value="" style="shape=flexArrow;endArrow=classic;startArrow=classic;html=1;rounded=0;fontSize=11;fontStyle=1;fillColor=default;entryX=0.521;entryY=1;entryDx=0;entryDy=0;entryPerimeter=0;exitX=0.215;exitY=0.016;exitDx=0;exitDy=0;exitPerimeter=0;" edge="1" parent="1" source="hX7-4YJbFAhG8RBtURKL-48" target="hX7-4YJbFAhG8RBtURKL-55">
          <mxGeometry width="100" height="100" relative="1" as="geometry">
            <mxPoint x="-264" y="4640" as="sourcePoint" />
            <mxPoint x="-266.31999999999994" y="4590" as="targetPoint" />
          </mxGeometry>
        </mxCell>
        <mxCell id="hX7-4YJbFAhG8RBtURKL-58" value="" style="shape=flexArrow;endArrow=classic;startArrow=classic;html=1;rounded=0;" edge="1" parent="1">
          <mxGeometry width="100" height="100" relative="1" as="geometry">
            <mxPoint x="-212" y="4772" as="sourcePoint" />
            <mxPoint x="-212" y="4722" as="targetPoint" />
          </mxGeometry>
        </mxCell>
        <mxCell id="hX7-4YJbFAhG8RBtURKL-59" value="&lt;b&gt;&lt;font color=&quot;#0000ff&quot; style=&quot;font-size: 16px;&quot;&gt;INTERFACE&lt;/font&gt;&lt;/b&gt;" style="text;html=1;strokeColor=none;fillColor=none;align=center;verticalAlign=middle;whiteSpace=wrap;rounded=0;" vertex="1" parent="1">
          <mxGeometry x="-240" y="4503.5" width="60" height="30" as="geometry" />
        </mxCell>
        <mxCell id="hX7-4YJbFAhG8RBtURKL-60" value="" style="rounded=1;whiteSpace=wrap;html=1;fontSize=16;fontStyle=1" vertex="1" parent="1">
          <mxGeometry x="-410" y="3930" width="250" height="310" as="geometry" />
        </mxCell>
        <mxCell id="hX7-4YJbFAhG8RBtURKL-61" value="&lt;b&gt;&lt;font style=&quot;font-size: 18px;&quot;&gt;SNN_CONTROLLER&lt;/font&gt;&lt;/b&gt;" style="text;html=1;strokeColor=none;fillColor=none;align=center;verticalAlign=middle;whiteSpace=wrap;rounded=0;fontColor=#0000FF;" vertex="1" parent="1">
          <mxGeometry x="-285" y="3940" width="60" height="30" as="geometry" />
        </mxCell>
        <mxCell id="hX7-4YJbFAhG8RBtURKL-62" value="SNN_CTRL" style="rounded=1;whiteSpace=wrap;html=1;fontSize=16;fontStyle=1" vertex="1" parent="1">
          <mxGeometry x="-389.66" y="3992" width="209.66" height="218" as="geometry" />
        </mxCell>
        <mxCell id="hX7-4YJbFAhG8RBtURKL-63" value="" style="shape=flexArrow;endArrow=classic;startArrow=classic;html=1;rounded=0;fontSize=16;fontStyle=1;fillColor=#FFFFFF;" edge="1" parent="1">
          <mxGeometry width="100" height="100" relative="1" as="geometry">
            <mxPoint x="-467.5" y="4100.2300000000005" as="sourcePoint" />
            <mxPoint x="-382.38" y="4100.6" as="targetPoint" />
          </mxGeometry>
        </mxCell>
        <mxCell id="hX7-4YJbFAhG8RBtURKL-64" value="&lt;b style=&quot;&quot;&gt;&lt;font style=&quot;font-size: 20px;&quot;&gt;INTERFACE&lt;/font&gt;&lt;/b&gt;" style="text;html=1;strokeColor=none;fillColor=none;align=center;verticalAlign=middle;whiteSpace=wrap;rounded=0;" vertex="1" parent="1">
          <mxGeometry x="-560" y="4086" width="60" height="30" as="geometry" />
        </mxCell>
        <mxCell id="hX7-4YJbFAhG8RBtURKL-65" value="" style="shape=flexArrow;endArrow=classic;startArrow=classic;html=1;rounded=0;fontSize=16;fontStyle=1;fillColor=#FFFFFF;" edge="1" parent="1">
          <mxGeometry width="100" height="100" relative="1" as="geometry">
            <mxPoint x="-177.12" y="4040.0000000000005" as="sourcePoint" />
            <mxPoint x="-92" y="4040.3700000000003" as="targetPoint" />
          </mxGeometry>
        </mxCell>
        <mxCell id="hX7-4YJbFAhG8RBtURKL-66" value="&lt;span style=&quot;font-size: 20px;&quot;&gt;&lt;b&gt;STDP_LEARNING&lt;/b&gt;&lt;/span&gt;" style="text;html=1;strokeColor=none;fillColor=none;align=center;verticalAlign=middle;whiteSpace=wrap;rounded=0;" vertex="1" parent="1">
          <mxGeometry x="-32.879999999999995" y="4028" width="60" height="30" as="geometry" />
        </mxCell>
        <mxCell id="hX7-4YJbFAhG8RBtURKL-67" value="" style="shape=flexArrow;endArrow=classic;startArrow=classic;html=1;rounded=0;fontSize=16;fontStyle=1;fillColor=#FFFFFF;" edge="1" parent="1">
          <mxGeometry width="100" height="100" relative="1" as="geometry">
            <mxPoint x="-176.12" y="4150" as="sourcePoint" />
            <mxPoint x="-91" y="4150.370000000001" as="targetPoint" />
          </mxGeometry>
        </mxCell>
        <mxCell id="hX7-4YJbFAhG8RBtURKL-68" value="&lt;font style=&quot;font-size: 20px;&quot;&gt;DENDRITE_COMPUTE&lt;/font&gt;" style="text;html=1;strokeColor=none;fillColor=none;align=center;verticalAlign=middle;whiteSpace=wrap;rounded=0;fontStyle=1" vertex="1" parent="1">
          <mxGeometry x="-9.999999999999996" y="4138" width="60" height="30" as="geometry" />
        </mxCell>
        <mxCell id="hX7-4YJbFAhG8RBtURKL-69" value="" style="shape=flexArrow;endArrow=classic;startArrow=classic;html=1;rounded=0;fontSize=16;fontStyle=1;fillColor=#FFFFFF;" edge="1" parent="1">
          <mxGeometry width="100" height="100" relative="1" as="geometry">
            <mxPoint x="-290" y="4210" as="sourcePoint" />
            <mxPoint x="-290" y="4280" as="targetPoint" />
          </mxGeometry>
        </mxCell>
        <mxCell id="hX7-4YJbFAhG8RBtURKL-70" value="&lt;span style=&quot;font-size: 20px;&quot;&gt;WEIGHT_MEM&lt;/span&gt;" style="text;html=1;strokeColor=none;fillColor=none;align=center;verticalAlign=middle;whiteSpace=wrap;rounded=0;fontStyle=1" vertex="1" parent="1">
          <mxGeometry x="-320" y="4280" width="60" height="30" as="geometry" />
        </mxCell>
        <mxCell id="hX7-4YJbFAhG8RBtURKL-71" value="" style="group" vertex="1" connectable="0" parent="1">
          <mxGeometry x="-1590" y="5100" width="905" height="521" as="geometry" />
        </mxCell>
        <mxCell id="hX7-4YJbFAhG8RBtURKL-72" value="STDP_LEARNING" style="rounded=1;whiteSpace=wrap;html=1;fontSize=16;fontStyle=1" vertex="1" parent="hX7-4YJbFAhG8RBtURKL-71">
          <mxGeometry x="655" y="185.75" width="250" height="143.5" as="geometry" />
        </mxCell>
        <mxCell id="hX7-4YJbFAhG8RBtURKL-73" value="SNN_CONTROLLER" style="rounded=1;whiteSpace=wrap;html=1;fontSize=16;fontStyle=1" vertex="1" parent="hX7-4YJbFAhG8RBtURKL-71">
          <mxGeometry x="350" y="160.76000000000022" width="231.88" height="196.5" as="geometry" />
        </mxCell>
        <mxCell id="hX7-4YJbFAhG8RBtURKL-74" value="" style="shape=flexArrow;endArrow=classic;startArrow=classic;html=1;rounded=0;fontSize=16;fontStyle=1;entryX=0;entryY=0.5;entryDx=0;entryDy=0;exitX=1;exitY=0.5;exitDx=0;exitDy=0;" edge="1" parent="hX7-4YJbFAhG8RBtURKL-71" source="hX7-4YJbFAhG8RBtURKL-73" target="hX7-4YJbFAhG8RBtURKL-72">
          <mxGeometry width="100" height="100" relative="1" as="geometry">
            <mxPoint x="600" y="197.5" as="sourcePoint" />
            <mxPoint x="740" y="167.5" as="targetPoint" />
          </mxGeometry>
        </mxCell>
        <mxCell id="hX7-4YJbFAhG8RBtURKL-75" value="" style="shape=flexArrow;endArrow=classic;startArrow=classic;html=1;rounded=0;fontSize=16;fontStyle=1;exitX=0.5;exitY=1;exitDx=0;exitDy=0;" edge="1" parent="hX7-4YJbFAhG8RBtURKL-71" source="hX7-4YJbFAhG8RBtURKL-73" target="hX7-4YJbFAhG8RBtURKL-79">
          <mxGeometry width="100" height="100" relative="1" as="geometry">
            <mxPoint x="512.1199999999999" y="377.5" as="sourcePoint" />
            <mxPoint x="466" y="417.5" as="targetPoint" />
          </mxGeometry>
        </mxCell>
        <mxCell id="hX7-4YJbFAhG8RBtURKL-76" value="&lt;font style=&quot;font-size: 20px;&quot;&gt;&lt;b&gt;INTERFACE&lt;/b&gt;&lt;/font&gt;" style="rounded=1;whiteSpace=wrap;html=1;" vertex="1" parent="hX7-4YJbFAhG8RBtURKL-71">
          <mxGeometry x="146" y="100.5" width="130" height="315" as="geometry" />
        </mxCell>
        <mxCell id="hX7-4YJbFAhG8RBtURKL-77" value="" style="shape=flexArrow;endArrow=classic;startArrow=classic;html=1;rounded=0;fontSize=16;fontStyle=1;exitX=1;exitY=0.5;exitDx=0;exitDy=0;" edge="1" parent="hX7-4YJbFAhG8RBtURKL-71" source="hX7-4YJbFAhG8RBtURKL-76">
          <mxGeometry width="100" height="100" relative="1" as="geometry">
            <mxPoint x="281" y="258.71000000000004" as="sourcePoint" />
            <mxPoint x="350" y="259.0799999999999" as="targetPoint" />
          </mxGeometry>
        </mxCell>
        <mxCell id="hX7-4YJbFAhG8RBtURKL-78" value="" style="shape=flexArrow;endArrow=classic;html=1;rounded=0;" edge="1" parent="hX7-4YJbFAhG8RBtURKL-71">
          <mxGeometry width="50" height="50" relative="1" as="geometry">
            <mxPoint x="6" y="183.25" as="sourcePoint" />
            <mxPoint x="146" y="183.25" as="targetPoint" />
          </mxGeometry>
        </mxCell>
        <mxCell id="hX7-4YJbFAhG8RBtURKL-79" value="DENDRITE_COMPUTE" style="rounded=1;whiteSpace=wrap;html=1;fontSize=16;fontStyle=1" vertex="1" parent="hX7-4YJbFAhG8RBtURKL-71">
          <mxGeometry x="340.19000000000005" y="427.5" width="251.5" height="93.5" as="geometry" />
        </mxCell>
        <mxCell id="hX7-4YJbFAhG8RBtURKL-80" value="" style="shape=flexArrow;endArrow=classic;startArrow=classic;html=1;rounded=0;fontSize=16;fontStyle=1;exitX=0.5;exitY=1;exitDx=0;exitDy=0;" edge="1" parent="hX7-4YJbFAhG8RBtURKL-71">
          <mxGeometry width="100" height="100" relative="1" as="geometry">
            <mxPoint x="399.5999999999999" y="90.76000000000022" as="sourcePoint" />
            <mxPoint x="399.5999999999999" y="160.76000000000022" as="targetPoint" />
          </mxGeometry>
        </mxCell>
        <mxCell id="hX7-4YJbFAhG8RBtURKL-81" value="TRACE_MEM" style="rounded=1;whiteSpace=wrap;html=1;fontSize=16;fontStyle=1" vertex="1" parent="hX7-4YJbFAhG8RBtURKL-71">
          <mxGeometry x="341.69000000000005" width="250" height="90" as="geometry" />
        </mxCell>
        <mxCell id="hX7-4YJbFAhG8RBtURKL-82" value="" style="shape=flexArrow;endArrow=classic;startArrow=classic;html=1;rounded=0;fontSize=16;fontStyle=1;exitX=0.5;exitY=1;exitDx=0;exitDy=0;" edge="1" parent="hX7-4YJbFAhG8RBtURKL-71">
          <mxGeometry width="100" height="100" relative="1" as="geometry">
            <mxPoint x="530.5999999999999" y="90.76000000000022" as="sourcePoint" />
            <mxPoint x="530.5999999999999" y="160.76000000000022" as="targetPoint" />
          </mxGeometry>
        </mxCell>
        <mxCell id="hX7-4YJbFAhG8RBtURKL-83" value="" style="shape=flexArrow;endArrow=classic;html=1;rounded=0;" edge="1" parent="hX7-4YJbFAhG8RBtURKL-71">
          <mxGeometry width="50" height="50" relative="1" as="geometry">
            <mxPoint x="146" y="347.1800000000003" as="sourcePoint" />
            <mxPoint y="347.5" as="targetPoint" />
          </mxGeometry>
        </mxCell>
        <mxCell id="hX7-4YJbFAhG8RBtURKL-84" value="&lt;b&gt;INPUT SPIKE&lt;/b&gt;" style="text;html=1;strokeColor=none;fillColor=none;align=center;verticalAlign=middle;whiteSpace=wrap;rounded=0;" vertex="1" parent="hX7-4YJbFAhG8RBtURKL-71">
          <mxGeometry x="42" y="147.5" width="62" height="30" as="geometry" />
        </mxCell>
        <mxCell id="hX7-4YJbFAhG8RBtURKL-85" value="&lt;b&gt;OUTPUT&amp;nbsp;&lt;br&gt;mem_potential&lt;br&gt;&lt;/b&gt;" style="text;html=1;strokeColor=none;fillColor=none;align=center;verticalAlign=middle;whiteSpace=wrap;rounded=0;" vertex="1" parent="hX7-4YJbFAhG8RBtURKL-71">
          <mxGeometry x="42" y="307.5" width="62" height="30" as="geometry" />
        </mxCell>
        <mxCell id="hX7-4YJbFAhG8RBtURKL-86" value="&lt;b&gt;INPUT&amp;nbsp;&lt;br&gt;WEIGHT&lt;br&gt;&lt;/b&gt;" style="text;html=1;strokeColor=none;fillColor=none;align=center;verticalAlign=middle;whiteSpace=wrap;rounded=0;" vertex="1" parent="hX7-4YJbFAhG8RBtURKL-71">
          <mxGeometry x="42" y="189.25" width="62" height="28.25" as="geometry" />
        </mxCell>
        <mxCell id="hX7-4YJbFAhG8RBtURKL-87" value="&lt;b&gt;OUTPUT&amp;nbsp;&lt;br&gt;WEIGHT&lt;br&gt;&lt;/b&gt;" style="text;html=1;strokeColor=none;fillColor=none;align=center;verticalAlign=middle;whiteSpace=wrap;rounded=0;" vertex="1" parent="hX7-4YJbFAhG8RBtURKL-71">
          <mxGeometry x="42" y="357.5" width="62" height="28.25" as="geometry" />
        </mxCell>
        <mxCell id="hX7-4YJbFAhG8RBtURKL-89" value="" style="group" vertex="1" connectable="0" parent="1">
          <mxGeometry x="-3359" y="6140" width="905" height="521" as="geometry" />
        </mxCell>
        <mxCell id="hX7-4YJbFAhG8RBtURKL-90" value="STDP_LEARNING" style="rounded=1;whiteSpace=wrap;html=1;fontSize=16;fontStyle=1" vertex="1" parent="hX7-4YJbFAhG8RBtURKL-89">
          <mxGeometry x="655" y="185.75" width="250" height="143.5" as="geometry" />
        </mxCell>
        <mxCell id="hX7-4YJbFAhG8RBtURKL-91" value="SNN_CONTROLLER" style="rounded=1;whiteSpace=wrap;html=1;fontSize=16;fontStyle=1" vertex="1" parent="hX7-4YJbFAhG8RBtURKL-89">
          <mxGeometry x="350" y="160.76000000000022" width="231.88" height="196.5" as="geometry" />
        </mxCell>
        <mxCell id="hX7-4YJbFAhG8RBtURKL-92" value="" style="shape=flexArrow;endArrow=classic;startArrow=classic;html=1;rounded=0;fontSize=16;fontStyle=1;entryX=0;entryY=0.5;entryDx=0;entryDy=0;exitX=1;exitY=0.5;exitDx=0;exitDy=0;" edge="1" parent="hX7-4YJbFAhG8RBtURKL-89" source="hX7-4YJbFAhG8RBtURKL-91" target="hX7-4YJbFAhG8RBtURKL-90">
          <mxGeometry width="100" height="100" relative="1" as="geometry">
            <mxPoint x="600" y="197.5" as="sourcePoint" />
            <mxPoint x="740" y="167.5" as="targetPoint" />
          </mxGeometry>
        </mxCell>
        <mxCell id="hX7-4YJbFAhG8RBtURKL-93" value="" style="shape=flexArrow;endArrow=classic;startArrow=classic;html=1;rounded=0;fontSize=16;fontStyle=1;exitX=0.5;exitY=1;exitDx=0;exitDy=0;" edge="1" parent="hX7-4YJbFAhG8RBtURKL-89" source="hX7-4YJbFAhG8RBtURKL-91" target="hX7-4YJbFAhG8RBtURKL-97">
          <mxGeometry width="100" height="100" relative="1" as="geometry">
            <mxPoint x="512.1199999999999" y="377.5" as="sourcePoint" />
            <mxPoint x="466" y="417.5" as="targetPoint" />
          </mxGeometry>
        </mxCell>
        <mxCell id="hX7-4YJbFAhG8RBtURKL-94" value="&lt;font style=&quot;font-size: 20px;&quot;&gt;&lt;b&gt;INTERFACE&lt;/b&gt;&lt;/font&gt;" style="rounded=1;whiteSpace=wrap;html=1;" vertex="1" parent="hX7-4YJbFAhG8RBtURKL-89">
          <mxGeometry x="146" y="100.5" width="130" height="315" as="geometry" />
        </mxCell>
        <mxCell id="hX7-4YJbFAhG8RBtURKL-95" value="" style="shape=flexArrow;endArrow=classic;startArrow=classic;html=1;rounded=0;fontSize=16;fontStyle=1;exitX=1;exitY=0.5;exitDx=0;exitDy=0;" edge="1" parent="hX7-4YJbFAhG8RBtURKL-89" source="hX7-4YJbFAhG8RBtURKL-94">
          <mxGeometry width="100" height="100" relative="1" as="geometry">
            <mxPoint x="281" y="258.71000000000004" as="sourcePoint" />
            <mxPoint x="350" y="259.0799999999999" as="targetPoint" />
          </mxGeometry>
        </mxCell>
        <mxCell id="hX7-4YJbFAhG8RBtURKL-96" value="" style="shape=flexArrow;endArrow=classic;html=1;rounded=0;" edge="1" parent="hX7-4YJbFAhG8RBtURKL-89">
          <mxGeometry width="50" height="50" relative="1" as="geometry">
            <mxPoint x="6" y="183.25" as="sourcePoint" />
            <mxPoint x="146" y="183.25" as="targetPoint" />
          </mxGeometry>
        </mxCell>
        <mxCell id="hX7-4YJbFAhG8RBtURKL-97" value="DENDRITE_COMPUTE" style="rounded=1;whiteSpace=wrap;html=1;fontSize=16;fontStyle=1" vertex="1" parent="hX7-4YJbFAhG8RBtURKL-89">
          <mxGeometry x="340.19000000000005" y="427.5" width="251.5" height="93.5" as="geometry" />
        </mxCell>
        <mxCell id="hX7-4YJbFAhG8RBtURKL-98" value="" style="shape=flexArrow;endArrow=classic;startArrow=classic;html=1;rounded=0;fontSize=16;fontStyle=1;exitX=0.5;exitY=1;exitDx=0;exitDy=0;" edge="1" parent="hX7-4YJbFAhG8RBtURKL-89">
          <mxGeometry width="100" height="100" relative="1" as="geometry">
            <mxPoint x="399.5999999999999" y="90.76000000000022" as="sourcePoint" />
            <mxPoint x="399.5999999999999" y="160.76000000000022" as="targetPoint" />
          </mxGeometry>
        </mxCell>
        <mxCell id="hX7-4YJbFAhG8RBtURKL-99" value="TRACE_MEM" style="rounded=1;whiteSpace=wrap;html=1;fontSize=16;fontStyle=1" vertex="1" parent="hX7-4YJbFAhG8RBtURKL-89">
          <mxGeometry x="341.69000000000005" width="250" height="90" as="geometry" />
        </mxCell>
        <mxCell id="hX7-4YJbFAhG8RBtURKL-100" value="" style="shape=flexArrow;endArrow=classic;startArrow=classic;html=1;rounded=0;fontSize=16;fontStyle=1;exitX=0.5;exitY=1;exitDx=0;exitDy=0;" edge="1" parent="hX7-4YJbFAhG8RBtURKL-89">
          <mxGeometry width="100" height="100" relative="1" as="geometry">
            <mxPoint x="530.5999999999999" y="90.76000000000022" as="sourcePoint" />
            <mxPoint x="530.5999999999999" y="160.76000000000022" as="targetPoint" />
          </mxGeometry>
        </mxCell>
        <mxCell id="hX7-4YJbFAhG8RBtURKL-101" value="" style="shape=flexArrow;endArrow=classic;html=1;rounded=0;" edge="1" parent="hX7-4YJbFAhG8RBtURKL-89">
          <mxGeometry width="50" height="50" relative="1" as="geometry">
            <mxPoint x="146" y="347.1800000000003" as="sourcePoint" />
            <mxPoint y="347.5" as="targetPoint" />
          </mxGeometry>
        </mxCell>
        <mxCell id="hX7-4YJbFAhG8RBtURKL-102" value="&lt;b&gt;INPUT SPIKE&lt;/b&gt;" style="text;html=1;strokeColor=none;fillColor=none;align=center;verticalAlign=middle;whiteSpace=wrap;rounded=0;" vertex="1" parent="hX7-4YJbFAhG8RBtURKL-89">
          <mxGeometry x="42" y="147.5" width="62" height="30" as="geometry" />
        </mxCell>
        <mxCell id="hX7-4YJbFAhG8RBtURKL-103" value="&lt;b&gt;OUTPUT&amp;nbsp;&lt;br&gt;mem_potential&lt;br&gt;&lt;/b&gt;" style="text;html=1;strokeColor=none;fillColor=none;align=center;verticalAlign=middle;whiteSpace=wrap;rounded=0;" vertex="1" parent="hX7-4YJbFAhG8RBtURKL-89">
          <mxGeometry x="42" y="307.5" width="62" height="30" as="geometry" />
        </mxCell>
        <mxCell id="hX7-4YJbFAhG8RBtURKL-104" value="&lt;b&gt;INPUT&amp;nbsp;&lt;br&gt;WEIGHT&lt;br&gt;&lt;/b&gt;" style="text;html=1;strokeColor=none;fillColor=none;align=center;verticalAlign=middle;whiteSpace=wrap;rounded=0;" vertex="1" parent="hX7-4YJbFAhG8RBtURKL-89">
          <mxGeometry x="42" y="189.25" width="62" height="28.25" as="geometry" />
        </mxCell>
        <mxCell id="hX7-4YJbFAhG8RBtURKL-105" value="&lt;b&gt;OUTPUT&amp;nbsp;&lt;br&gt;WEIGHT&lt;br&gt;&lt;/b&gt;" style="text;html=1;strokeColor=none;fillColor=none;align=center;verticalAlign=middle;whiteSpace=wrap;rounded=0;" vertex="1" parent="hX7-4YJbFAhG8RBtURKL-89">
          <mxGeometry x="42" y="357.5" width="62" height="28.25" as="geometry" />
        </mxCell>
        <mxCell id="hX7-4YJbFAhG8RBtURKL-106" value="" style="curved=1;endArrow=classic;html=1;rounded=0;entryX=0.677;entryY=0.747;entryDx=0;entryDy=0;entryPerimeter=0;strokeWidth=2;strokeColor=#FF66B3;" edge="1" parent="hX7-4YJbFAhG8RBtURKL-89">
          <mxGeometry width="50" height="50" relative="1" as="geometry">
            <mxPoint x="729" y="286.5" as="sourcePoint" />
            <mxPoint x="499" y="307.5" as="targetPoint" />
            <Array as="points">
              <mxPoint x="659" y="307.5" />
            </Array>
          </mxGeometry>
        </mxCell>
        <mxCell id="hX7-4YJbFAhG8RBtURKL-107" value="&lt;font color=&quot;#ff66b3&quot;&gt;UPD_WEIGHT&lt;/font&gt;" style="edgeLabel;html=1;align=center;verticalAlign=middle;resizable=0;points=[];" vertex="1" connectable="0" parent="hX7-4YJbFAhG8RBtURKL-106">
          <mxGeometry x="-0.1499" y="-2" relative="1" as="geometry">
            <mxPoint as="offset" />
          </mxGeometry>
        </mxCell>
        <mxCell id="hX7-4YJbFAhG8RBtURKL-108" value="" style="curved=1;endArrow=classic;html=1;rounded=0;exitX=0.643;exitY=0.759;exitDx=0;exitDy=0;exitPerimeter=0;entryX=0.83;entryY=0.668;entryDx=0;entryDy=0;entryPerimeter=0;strokeColor=#007FFF;" edge="1" parent="hX7-4YJbFAhG8RBtURKL-89" source="hX7-4YJbFAhG8RBtURKL-91" target="hX7-4YJbFAhG8RBtURKL-97">
          <mxGeometry width="50" height="50" relative="1" as="geometry">
            <mxPoint x="-41" y="690" as="sourcePoint" />
            <mxPoint x="9" y="640" as="targetPoint" />
            <Array as="points">
              <mxPoint x="549" y="380" />
            </Array>
          </mxGeometry>
        </mxCell>
        <mxCell id="hX7-4YJbFAhG8RBtURKL-109" value="&lt;font color=&quot;#007fff&quot;&gt;WEIGHT&lt;/font&gt;" style="edgeLabel;html=1;align=center;verticalAlign=middle;resizable=0;points=[];" vertex="1" connectable="0" parent="hX7-4YJbFAhG8RBtURKL-108">
          <mxGeometry x="-0.2728" y="-9" relative="1" as="geometry">
            <mxPoint y="-1" as="offset" />
          </mxGeometry>
        </mxCell>
        <mxCell id="hX7-4YJbFAhG8RBtURKL-110" value="" style="curved=1;endArrow=classic;html=1;rounded=0;exitX=0.154;exitY=0.455;exitDx=0;exitDy=0;exitPerimeter=0;entryX=0.298;entryY=0.709;entryDx=0;entryDy=0;entryPerimeter=0;strokeColor=#007FFF;" edge="1" parent="hX7-4YJbFAhG8RBtURKL-89" source="hX7-4YJbFAhG8RBtURKL-97" target="hX7-4YJbFAhG8RBtURKL-91">
          <mxGeometry width="50" height="50" relative="1" as="geometry">
            <mxPoint x="359" y="440" as="sourcePoint" />
            <mxPoint x="409" y="390" as="targetPoint" />
            <Array as="points">
              <mxPoint x="379" y="390" />
            </Array>
          </mxGeometry>
        </mxCell>
        <mxCell id="hX7-4YJbFAhG8RBtURKL-111" value="&lt;font color=&quot;#007fff&quot;&gt;UPD_mem_V&lt;/font&gt;" style="edgeLabel;html=1;align=center;verticalAlign=middle;resizable=0;points=[];" vertex="1" connectable="0" parent="hX7-4YJbFAhG8RBtURKL-110">
          <mxGeometry x="0.2804" y="-5" relative="1" as="geometry">
            <mxPoint x="-21" y="45" as="offset" />
          </mxGeometry>
        </mxCell>
        <mxCell id="hX7-4YJbFAhG8RBtURKL-112" value="STDP_LEARNING" style="rounded=1;whiteSpace=wrap;html=1;fontSize=16;fontStyle=1" vertex="1" parent="1">
          <mxGeometry x="-2692" y="4854.75" width="250" height="143.5" as="geometry" />
        </mxCell>
        <mxCell id="hX7-4YJbFAhG8RBtURKL-113" value="SNN_CONTROLLER" style="rounded=1;whiteSpace=wrap;html=1;fontSize=16;fontStyle=1" vertex="1" parent="1">
          <mxGeometry x="-2997" y="4829.76" width="231.88" height="196.5" as="geometry" />
        </mxCell>
        <mxCell id="hX7-4YJbFAhG8RBtURKL-114" value="" style="shape=flexArrow;endArrow=classic;startArrow=classic;html=1;rounded=0;fontSize=16;fontStyle=1;entryX=0;entryY=0.5;entryDx=0;entryDy=0;exitX=1;exitY=0.5;exitDx=0;exitDy=0;" edge="1" parent="1" source="hX7-4YJbFAhG8RBtURKL-113" target="hX7-4YJbFAhG8RBtURKL-112">
          <mxGeometry width="100" height="100" relative="1" as="geometry">
            <mxPoint x="-2747" y="4866.5" as="sourcePoint" />
            <mxPoint x="-2607" y="4836.5" as="targetPoint" />
          </mxGeometry>
        </mxCell>
        <mxCell id="hX7-4YJbFAhG8RBtURKL-115" value="" style="shape=flexArrow;endArrow=classic;startArrow=classic;html=1;rounded=0;fontSize=16;fontStyle=1;exitX=0.5;exitY=1;exitDx=0;exitDy=0;" edge="1" parent="1" source="hX7-4YJbFAhG8RBtURKL-113" target="hX7-4YJbFAhG8RBtURKL-119">
          <mxGeometry width="100" height="100" relative="1" as="geometry">
            <mxPoint x="-2834.88" y="5046.5" as="sourcePoint" />
            <mxPoint x="-2881" y="5086.5" as="targetPoint" />
          </mxGeometry>
        </mxCell>
        <mxCell id="hX7-4YJbFAhG8RBtURKL-116" value="&lt;font style=&quot;font-size: 20px;&quot;&gt;&lt;b&gt;INTERFACE&lt;/b&gt;&lt;/font&gt;" style="rounded=1;whiteSpace=wrap;html=1;" vertex="1" parent="1">
          <mxGeometry x="-3201" y="4769.5" width="130" height="315" as="geometry" />
        </mxCell>
        <mxCell id="hX7-4YJbFAhG8RBtURKL-117" value="" style="shape=flexArrow;endArrow=classic;startArrow=classic;html=1;rounded=0;fontSize=16;fontStyle=1;exitX=1;exitY=0.5;exitDx=0;exitDy=0;" edge="1" parent="1" source="hX7-4YJbFAhG8RBtURKL-116">
          <mxGeometry width="100" height="100" relative="1" as="geometry">
            <mxPoint x="-3066" y="4927.71" as="sourcePoint" />
            <mxPoint x="-2997" y="4928.08" as="targetPoint" />
          </mxGeometry>
        </mxCell>
        <mxCell id="hX7-4YJbFAhG8RBtURKL-118" value="" style="shape=flexArrow;endArrow=classic;html=1;rounded=0;" edge="1" parent="1">
          <mxGeometry width="50" height="50" relative="1" as="geometry">
            <mxPoint x="-3341" y="4852.25" as="sourcePoint" />
            <mxPoint x="-3201" y="4852.25" as="targetPoint" />
          </mxGeometry>
        </mxCell>
        <mxCell id="hX7-4YJbFAhG8RBtURKL-119" value="DENDRITE_COMPUTE" style="rounded=1;whiteSpace=wrap;html=1;fontSize=16;fontStyle=1" vertex="1" parent="1">
          <mxGeometry x="-3006.81" y="5096.5" width="251.5" height="93.5" as="geometry" />
        </mxCell>
        <mxCell id="hX7-4YJbFAhG8RBtURKL-120" value="" style="shape=flexArrow;endArrow=classic;startArrow=classic;html=1;rounded=0;fontSize=16;fontStyle=1;exitX=0.5;exitY=1;exitDx=0;exitDy=0;" edge="1" parent="1">
          <mxGeometry width="100" height="100" relative="1" as="geometry">
            <mxPoint x="-2947.4" y="4759.76" as="sourcePoint" />
            <mxPoint x="-2947.4" y="4829.76" as="targetPoint" />
          </mxGeometry>
        </mxCell>
        <mxCell id="hX7-4YJbFAhG8RBtURKL-121" value="TRACE_MEM" style="rounded=1;whiteSpace=wrap;html=1;fontSize=16;fontStyle=1" vertex="1" parent="1">
          <mxGeometry x="-3005.31" y="4669" width="250" height="90" as="geometry" />
        </mxCell>
        <mxCell id="hX7-4YJbFAhG8RBtURKL-122" value="" style="shape=flexArrow;endArrow=classic;startArrow=classic;html=1;rounded=0;fontSize=16;fontStyle=1;exitX=0.5;exitY=1;exitDx=0;exitDy=0;" edge="1" parent="1">
          <mxGeometry width="100" height="100" relative="1" as="geometry">
            <mxPoint x="-2816.4" y="4759.76" as="sourcePoint" />
            <mxPoint x="-2816.4" y="4829.76" as="targetPoint" />
          </mxGeometry>
        </mxCell>
        <mxCell id="hX7-4YJbFAhG8RBtURKL-123" value="" style="shape=flexArrow;endArrow=classic;html=1;rounded=0;" edge="1" parent="1">
          <mxGeometry width="50" height="50" relative="1" as="geometry">
            <mxPoint x="-3201" y="5016.18" as="sourcePoint" />
            <mxPoint x="-3347" y="5016.5" as="targetPoint" />
          </mxGeometry>
        </mxCell>
        <mxCell id="hX7-4YJbFAhG8RBtURKL-124" value="&lt;b&gt;INPUT SPIKE&lt;/b&gt;" style="text;html=1;strokeColor=none;fillColor=none;align=center;verticalAlign=middle;whiteSpace=wrap;rounded=0;" vertex="1" parent="1">
          <mxGeometry x="-3305" y="4816.5" width="62" height="30" as="geometry" />
        </mxCell>
        <mxCell id="hX7-4YJbFAhG8RBtURKL-125" value="&lt;b&gt;OUTPUT&amp;nbsp;&lt;br&gt;mem_potential&lt;br&gt;&lt;/b&gt;" style="text;html=1;strokeColor=none;fillColor=none;align=center;verticalAlign=middle;whiteSpace=wrap;rounded=0;" vertex="1" parent="1">
          <mxGeometry x="-3305" y="4976.5" width="62" height="30" as="geometry" />
        </mxCell>
        <mxCell id="hX7-4YJbFAhG8RBtURKL-126" value="&lt;b&gt;INPUT&amp;nbsp;&lt;br&gt;WEIGHT&lt;br&gt;&lt;/b&gt;" style="text;html=1;strokeColor=none;fillColor=none;align=center;verticalAlign=middle;whiteSpace=wrap;rounded=0;" vertex="1" parent="1">
          <mxGeometry x="-3305" y="4858.25" width="62" height="28.25" as="geometry" />
        </mxCell>
        <mxCell id="hX7-4YJbFAhG8RBtURKL-127" value="&lt;b&gt;OUTPUT&amp;nbsp;&lt;br&gt;WEIGHT&lt;br&gt;&lt;/b&gt;" style="text;html=1;strokeColor=none;fillColor=none;align=center;verticalAlign=middle;whiteSpace=wrap;rounded=0;" vertex="1" parent="1">
          <mxGeometry x="-3305" y="5026.5" width="62" height="28.25" as="geometry" />
        </mxCell>
        <mxCell id="hX7-4YJbFAhG8RBtURKL-128" value="" style="curved=1;endArrow=classic;html=1;rounded=0;entryX=0.203;entryY=0.205;entryDx=0;entryDy=0;entryPerimeter=0;strokeWidth=2;strokeColor=#FF66B3;" edge="1" parent="1" target="hX7-4YJbFAhG8RBtURKL-113">
          <mxGeometry width="50" height="50" relative="1" as="geometry">
            <mxPoint x="-3380" y="4790" as="sourcePoint" />
            <mxPoint x="-3290" y="4720" as="targetPoint" />
            <Array as="points">
              <mxPoint x="-3320" y="4790" />
              <mxPoint x="-3060" y="4810" />
            </Array>
          </mxGeometry>
        </mxCell>
        <mxCell id="hX7-4YJbFAhG8RBtURKL-129" value="&lt;font color=&quot;#ff66b3&quot;&gt;SPIKE_INFO&lt;/font&gt;" style="edgeLabel;html=1;align=center;verticalAlign=middle;resizable=0;points=[];" vertex="1" connectable="0" parent="hX7-4YJbFAhG8RBtURKL-128">
          <mxGeometry x="-0.6323" y="1" relative="1" as="geometry">
            <mxPoint as="offset" />
          </mxGeometry>
        </mxCell>
        <mxCell id="hX7-4YJbFAhG8RBtURKL-130" value="" style="curved=1;endArrow=classic;html=1;rounded=0;strokeWidth=2;strokeColor=#007FFF;entryX=0.85;entryY=0.052;entryDx=0;entryDy=0;entryPerimeter=0;" edge="1" parent="1" target="hX7-4YJbFAhG8RBtURKL-113">
          <mxGeometry width="50" height="50" relative="1" as="geometry">
            <mxPoint x="-2820" y="4744.75" as="sourcePoint" />
            <mxPoint x="-2700" y="4854.75" as="targetPoint" />
            <Array as="points">
              <mxPoint x="-2760" y="4744.75" />
              <mxPoint x="-2740" y="4794.75" />
            </Array>
          </mxGeometry>
        </mxCell>
        <mxCell id="hX7-4YJbFAhG8RBtURKL-131" value="&lt;font color=&quot;#007fff&quot;&gt;TRACE&lt;/font&gt;" style="edgeLabel;html=1;align=center;verticalAlign=middle;resizable=0;points=[];" vertex="1" connectable="0" parent="hX7-4YJbFAhG8RBtURKL-130">
          <mxGeometry x="0.0326" y="-6" relative="1" as="geometry">
            <mxPoint as="offset" />
          </mxGeometry>
        </mxCell>
        <mxCell id="hX7-4YJbFAhG8RBtURKL-132" value="" style="curved=1;endArrow=classic;html=1;rounded=0;strokeWidth=2;strokeColor=#007FFF;exitX=0.634;exitY=0.103;exitDx=0;exitDy=0;exitPerimeter=0;entryX=0.621;entryY=0.789;entryDx=0;entryDy=0;entryPerimeter=0;" edge="1" parent="1" source="hX7-4YJbFAhG8RBtURKL-113" target="hX7-4YJbFAhG8RBtURKL-121">
          <mxGeometry width="50" height="50" relative="1" as="geometry">
            <mxPoint x="-2811" y="4768.25" as="sourcePoint" />
            <mxPoint x="-2890" y="4755.25" as="targetPoint" />
            <Array as="points">
              <mxPoint x="-2853" y="4830" />
              <mxPoint x="-2900" y="4800" />
            </Array>
          </mxGeometry>
        </mxCell>
        <mxCell id="hX7-4YJbFAhG8RBtURKL-133" value="&lt;font color=&quot;#007fff&quot;&gt;TRACE_ADDR&lt;/font&gt;" style="edgeLabel;html=1;align=center;verticalAlign=middle;resizable=0;points=[];" vertex="1" connectable="0" parent="hX7-4YJbFAhG8RBtURKL-132">
          <mxGeometry x="0.2475" y="-6" relative="1" as="geometry">
            <mxPoint as="offset" />
          </mxGeometry>
        </mxCell>
        <mxCell id="hX7-4YJbFAhG8RBtURKL-134" value="" style="curved=1;endArrow=classic;html=1;rounded=0;entryX=0.16;entryY=0.408;entryDx=0;entryDy=0;entryPerimeter=0;strokeColor=#00CC00;strokeWidth=2;" edge="1" parent="1">
          <mxGeometry width="50" height="50" relative="1" as="geometry">
            <mxPoint x="-3320" y="4897" as="sourcePoint" />
            <mxPoint x="-2959.8992" y="4926.932000000001" as="targetPoint" />
            <Array as="points">
              <mxPoint x="-3220" y="4980" />
            </Array>
          </mxGeometry>
        </mxCell>
        <mxCell id="hX7-4YJbFAhG8RBtURKL-135" value="&lt;font color=&quot;#00cc00&quot;&gt;WEIGHT_INFO&lt;/font&gt;" style="edgeLabel;html=1;align=center;verticalAlign=middle;resizable=0;points=[];" vertex="1" connectable="0" parent="hX7-4YJbFAhG8RBtURKL-134">
          <mxGeometry x="0.0723" y="16" relative="1" as="geometry">
            <mxPoint as="offset" />
          </mxGeometry>
        </mxCell>
        <mxCell id="hX7-4YJbFAhG8RBtURKL-136" value="" style="curved=1;endArrow=classic;html=1;rounded=0;exitX=0.203;exitY=0.408;exitDx=0;exitDy=0;exitPerimeter=0;strokeWidth=2;strokeColor=#00CC00;" edge="1" parent="1" source="hX7-4YJbFAhG8RBtURKL-113">
          <mxGeometry width="50" height="50" relative="1" as="geometry">
            <mxPoint x="-3470" y="4990" as="sourcePoint" />
            <mxPoint x="-3330" y="4880" as="targetPoint" />
            <Array as="points">
              <mxPoint x="-3140" y="4890" />
            </Array>
          </mxGeometry>
        </mxCell>
        <mxCell id="hX7-4YJbFAhG8RBtURKL-137" value="&lt;font color=&quot;#00cc00&quot;&gt;WEIGHT_ADDR&lt;/font&gt;" style="edgeLabel;html=1;align=center;verticalAlign=middle;resizable=0;points=[];" vertex="1" connectable="0" parent="hX7-4YJbFAhG8RBtURKL-136">
          <mxGeometry x="-0.0597" y="1" relative="1" as="geometry">
            <mxPoint as="offset" />
          </mxGeometry>
        </mxCell>
        <mxCell id="hX7-4YJbFAhG8RBtURKL-138" value="STDP_LEARNING" style="rounded=1;whiteSpace=wrap;html=1;fontSize=16;fontStyle=1" vertex="1" parent="1">
          <mxGeometry x="-2722" y="5568.25" width="250" height="143.5" as="geometry" />
        </mxCell>
        <mxCell id="hX7-4YJbFAhG8RBtURKL-139" value="SNN_CONTROLLER" style="rounded=1;whiteSpace=wrap;html=1;fontSize=16;fontStyle=1" vertex="1" parent="1">
          <mxGeometry x="-3027" y="5543.26" width="231.88" height="196.5" as="geometry" />
        </mxCell>
        <mxCell id="hX7-4YJbFAhG8RBtURKL-140" value="" style="shape=flexArrow;endArrow=classic;startArrow=classic;html=1;rounded=0;fontSize=16;fontStyle=1;entryX=0;entryY=0.5;entryDx=0;entryDy=0;exitX=1;exitY=0.5;exitDx=0;exitDy=0;" edge="1" parent="1" source="hX7-4YJbFAhG8RBtURKL-139" target="hX7-4YJbFAhG8RBtURKL-138">
          <mxGeometry width="100" height="100" relative="1" as="geometry">
            <mxPoint x="-2777" y="5580" as="sourcePoint" />
            <mxPoint x="-2637" y="5550" as="targetPoint" />
          </mxGeometry>
        </mxCell>
        <mxCell id="hX7-4YJbFAhG8RBtURKL-141" value="" style="shape=flexArrow;endArrow=classic;startArrow=classic;html=1;rounded=0;fontSize=16;fontStyle=1;exitX=0.5;exitY=1;exitDx=0;exitDy=0;" edge="1" parent="1" source="hX7-4YJbFAhG8RBtURKL-139" target="hX7-4YJbFAhG8RBtURKL-145">
          <mxGeometry width="100" height="100" relative="1" as="geometry">
            <mxPoint x="-2864.88" y="5760" as="sourcePoint" />
            <mxPoint x="-2911" y="5800" as="targetPoint" />
          </mxGeometry>
        </mxCell>
        <mxCell id="hX7-4YJbFAhG8RBtURKL-142" value="&lt;font style=&quot;font-size: 20px;&quot;&gt;&lt;b&gt;INTERFACE&lt;/b&gt;&lt;/font&gt;" style="rounded=1;whiteSpace=wrap;html=1;" vertex="1" parent="1">
          <mxGeometry x="-3231" y="5483" width="130" height="315" as="geometry" />
        </mxCell>
        <mxCell id="hX7-4YJbFAhG8RBtURKL-143" value="" style="shape=flexArrow;endArrow=classic;startArrow=classic;html=1;rounded=0;fontSize=16;fontStyle=1;exitX=1;exitY=0.5;exitDx=0;exitDy=0;" edge="1" parent="1" source="hX7-4YJbFAhG8RBtURKL-142">
          <mxGeometry width="100" height="100" relative="1" as="geometry">
            <mxPoint x="-3096" y="5641.21" as="sourcePoint" />
            <mxPoint x="-3027" y="5641.58" as="targetPoint" />
          </mxGeometry>
        </mxCell>
        <mxCell id="hX7-4YJbFAhG8RBtURKL-144" value="" style="shape=flexArrow;endArrow=classic;html=1;rounded=0;" edge="1" parent="1">
          <mxGeometry width="50" height="50" relative="1" as="geometry">
            <mxPoint x="-3371" y="5565.75" as="sourcePoint" />
            <mxPoint x="-3231" y="5565.75" as="targetPoint" />
          </mxGeometry>
        </mxCell>
        <mxCell id="hX7-4YJbFAhG8RBtURKL-145" value="DENDRITE_COMPUTE" style="rounded=1;whiteSpace=wrap;html=1;fontSize=16;fontStyle=1" vertex="1" parent="1">
          <mxGeometry x="-3036.81" y="5810" width="251.5" height="93.5" as="geometry" />
        </mxCell>
        <mxCell id="hX7-4YJbFAhG8RBtURKL-146" value="" style="shape=flexArrow;endArrow=classic;startArrow=classic;html=1;rounded=0;fontSize=16;fontStyle=1;exitX=0.5;exitY=1;exitDx=0;exitDy=0;" edge="1" parent="1">
          <mxGeometry width="100" height="100" relative="1" as="geometry">
            <mxPoint x="-2977.4" y="5473.26" as="sourcePoint" />
            <mxPoint x="-2977.4" y="5543.26" as="targetPoint" />
          </mxGeometry>
        </mxCell>
        <mxCell id="hX7-4YJbFAhG8RBtURKL-147" value="TRACE_MEM" style="rounded=1;whiteSpace=wrap;html=1;fontSize=16;fontStyle=1" vertex="1" parent="1">
          <mxGeometry x="-3035.31" y="5382.5" width="250" height="90" as="geometry" />
        </mxCell>
        <mxCell id="hX7-4YJbFAhG8RBtURKL-148" value="" style="shape=flexArrow;endArrow=classic;startArrow=classic;html=1;rounded=0;fontSize=16;fontStyle=1;exitX=0.5;exitY=1;exitDx=0;exitDy=0;" edge="1" parent="1">
          <mxGeometry width="100" height="100" relative="1" as="geometry">
            <mxPoint x="-2846.4" y="5473.26" as="sourcePoint" />
            <mxPoint x="-2846.4" y="5543.26" as="targetPoint" />
          </mxGeometry>
        </mxCell>
        <mxCell id="hX7-4YJbFAhG8RBtURKL-149" value="" style="shape=flexArrow;endArrow=classic;html=1;rounded=0;" edge="1" parent="1">
          <mxGeometry width="50" height="50" relative="1" as="geometry">
            <mxPoint x="-3231" y="5729.68" as="sourcePoint" />
            <mxPoint x="-3377" y="5730" as="targetPoint" />
          </mxGeometry>
        </mxCell>
        <mxCell id="hX7-4YJbFAhG8RBtURKL-150" value="&lt;b&gt;INPUT SPIKE&lt;/b&gt;" style="text;html=1;strokeColor=none;fillColor=none;align=center;verticalAlign=middle;whiteSpace=wrap;rounded=0;" vertex="1" parent="1">
          <mxGeometry x="-3335" y="5530" width="62" height="30" as="geometry" />
        </mxCell>
        <mxCell id="hX7-4YJbFAhG8RBtURKL-151" value="&lt;b&gt;OUTPUT&amp;nbsp;&lt;br&gt;mem_potential&lt;br&gt;&lt;/b&gt;" style="text;html=1;strokeColor=none;fillColor=none;align=center;verticalAlign=middle;whiteSpace=wrap;rounded=0;" vertex="1" parent="1">
          <mxGeometry x="-3335" y="5690" width="62" height="30" as="geometry" />
        </mxCell>
        <mxCell id="hX7-4YJbFAhG8RBtURKL-152" value="&lt;b&gt;INPUT&amp;nbsp;&lt;br&gt;WEIGHT&lt;br&gt;&lt;/b&gt;" style="text;html=1;strokeColor=none;fillColor=none;align=center;verticalAlign=middle;whiteSpace=wrap;rounded=0;" vertex="1" parent="1">
          <mxGeometry x="-3335" y="5571.75" width="62" height="28.25" as="geometry" />
        </mxCell>
        <mxCell id="hX7-4YJbFAhG8RBtURKL-153" value="&lt;b&gt;OUTPUT&amp;nbsp;&lt;br&gt;WEIGHT&lt;br&gt;&lt;/b&gt;" style="text;html=1;strokeColor=none;fillColor=none;align=center;verticalAlign=middle;whiteSpace=wrap;rounded=0;" vertex="1" parent="1">
          <mxGeometry x="-3335" y="5740" width="62" height="28.25" as="geometry" />
        </mxCell>
        <mxCell id="hX7-4YJbFAhG8RBtURKL-154" value="" style="curved=1;endArrow=classic;html=1;rounded=0;entryX=0.368;entryY=0.291;entryDx=0;entryDy=0;entryPerimeter=0;strokeWidth=2;strokeColor=#FF66B3;" edge="1" parent="1" target="hX7-4YJbFAhG8RBtURKL-138">
          <mxGeometry width="50" height="50" relative="1" as="geometry">
            <mxPoint x="-2950" y="5571.75" as="sourcePoint" />
            <mxPoint x="-2520" y="5651.75" as="targetPoint" />
            <Array as="points">
              <mxPoint x="-2890" y="5571.75" />
              <mxPoint x="-2710" y="5592" />
            </Array>
          </mxGeometry>
        </mxCell>
        <mxCell id="hX7-4YJbFAhG8RBtURKL-155" value="&lt;font color=&quot;#ff66b3&quot;&gt;SPIKE&lt;/font&gt;" style="edgeLabel;html=1;align=center;verticalAlign=middle;resizable=0;points=[];" vertex="1" connectable="0" parent="hX7-4YJbFAhG8RBtURKL-154">
          <mxGeometry x="-0.6323" y="1" relative="1" as="geometry">
            <mxPoint as="offset" />
          </mxGeometry>
        </mxCell>
        <mxCell id="hX7-4YJbFAhG8RBtURKL-156" value="" style="curved=1;endArrow=classic;html=1;rounded=0;entryX=0.677;entryY=0.747;entryDx=0;entryDy=0;entryPerimeter=0;strokeWidth=2;strokeColor=#FF66B3;" edge="1" parent="1" target="hX7-4YJbFAhG8RBtURKL-139">
          <mxGeometry width="50" height="50" relative="1" as="geometry">
            <mxPoint x="-2640" y="5669" as="sourcePoint" />
            <mxPoint x="-2220" y="5778.01" as="targetPoint" />
            <Array as="points">
              <mxPoint x="-2710" y="5690" />
            </Array>
          </mxGeometry>
        </mxCell>
        <mxCell id="hX7-4YJbFAhG8RBtURKL-157" value="&lt;font color=&quot;#ff66b3&quot;&gt;UPD_WEIGHT&lt;/font&gt;" style="edgeLabel;html=1;align=center;verticalAlign=middle;resizable=0;points=[];" vertex="1" connectable="0" parent="hX7-4YJbFAhG8RBtURKL-156">
          <mxGeometry x="-0.1499" y="-2" relative="1" as="geometry">
            <mxPoint as="offset" />
          </mxGeometry>
        </mxCell>
        <mxCell id="hX7-4YJbFAhG8RBtURKL-158" value="" style="curved=1;endArrow=classic;html=1;rounded=0;entryX=0.368;entryY=0.291;entryDx=0;entryDy=0;entryPerimeter=0;strokeWidth=2;strokeColor=#FF66B3;exitX=0.806;exitY=0.289;exitDx=0;exitDy=0;exitPerimeter=0;" edge="1" parent="1">
          <mxGeometry width="50" height="50" relative="1" as="geometry">
            <mxPoint x="-2867.1047200000003" y="5606.0485" as="sourcePoint" />
            <mxPoint x="-2647" y="5626" as="targetPoint" />
            <Array as="points">
              <mxPoint x="-2727" y="5608" />
            </Array>
          </mxGeometry>
        </mxCell>
        <mxCell id="hX7-4YJbFAhG8RBtURKL-159" value="&lt;font color=&quot;#ff66b3&quot;&gt;TRACE&lt;/font&gt;" style="edgeLabel;html=1;align=center;verticalAlign=middle;resizable=0;points=[];" vertex="1" connectable="0" parent="hX7-4YJbFAhG8RBtURKL-158">
          <mxGeometry x="-0.6323" y="1" relative="1" as="geometry">
            <mxPoint as="offset" />
          </mxGeometry>
        </mxCell>
        <mxCell id="hX7-4YJbFAhG8RBtURKL-160" value="" style="group" vertex="1" connectable="0" parent="1">
          <mxGeometry x="-3330" y="6820" width="905" height="521" as="geometry" />
        </mxCell>
        <mxCell id="hX7-4YJbFAhG8RBtURKL-161" value="STDP_LEARNING" style="rounded=1;whiteSpace=wrap;html=1;fontSize=16;fontStyle=1" vertex="1" parent="hX7-4YJbFAhG8RBtURKL-160">
          <mxGeometry x="655" y="185.75" width="250" height="143.5" as="geometry" />
        </mxCell>
        <mxCell id="hX7-4YJbFAhG8RBtURKL-162" value="SNN_CONTROLLER" style="rounded=1;whiteSpace=wrap;html=1;fontSize=16;fontStyle=1" vertex="1" parent="hX7-4YJbFAhG8RBtURKL-160">
          <mxGeometry x="350" y="160.76000000000022" width="231.88" height="196.5" as="geometry" />
        </mxCell>
        <mxCell id="hX7-4YJbFAhG8RBtURKL-163" value="" style="shape=flexArrow;endArrow=classic;startArrow=classic;html=1;rounded=0;fontSize=16;fontStyle=1;entryX=0;entryY=0.5;entryDx=0;entryDy=0;exitX=1;exitY=0.5;exitDx=0;exitDy=0;" edge="1" parent="hX7-4YJbFAhG8RBtURKL-160" source="hX7-4YJbFAhG8RBtURKL-162" target="hX7-4YJbFAhG8RBtURKL-161">
          <mxGeometry width="100" height="100" relative="1" as="geometry">
            <mxPoint x="600" y="197.5" as="sourcePoint" />
            <mxPoint x="740" y="167.5" as="targetPoint" />
          </mxGeometry>
        </mxCell>
        <mxCell id="hX7-4YJbFAhG8RBtURKL-164" value="" style="shape=flexArrow;endArrow=classic;startArrow=classic;html=1;rounded=0;fontSize=16;fontStyle=1;exitX=0.5;exitY=1;exitDx=0;exitDy=0;" edge="1" parent="hX7-4YJbFAhG8RBtURKL-160" source="hX7-4YJbFAhG8RBtURKL-162" target="hX7-4YJbFAhG8RBtURKL-168">
          <mxGeometry width="100" height="100" relative="1" as="geometry">
            <mxPoint x="512.1199999999999" y="377.5" as="sourcePoint" />
            <mxPoint x="466" y="417.5" as="targetPoint" />
          </mxGeometry>
        </mxCell>
        <mxCell id="hX7-4YJbFAhG8RBtURKL-165" value="&lt;font style=&quot;font-size: 20px;&quot;&gt;&lt;b&gt;INTERFACE&lt;/b&gt;&lt;/font&gt;" style="rounded=1;whiteSpace=wrap;html=1;" vertex="1" parent="hX7-4YJbFAhG8RBtURKL-160">
          <mxGeometry x="146" y="100.5" width="130" height="315" as="geometry" />
        </mxCell>
        <mxCell id="hX7-4YJbFAhG8RBtURKL-166" value="" style="shape=flexArrow;endArrow=classic;startArrow=classic;html=1;rounded=0;fontSize=16;fontStyle=1;exitX=1;exitY=0.5;exitDx=0;exitDy=0;" edge="1" parent="hX7-4YJbFAhG8RBtURKL-160" source="hX7-4YJbFAhG8RBtURKL-165">
          <mxGeometry width="100" height="100" relative="1" as="geometry">
            <mxPoint x="281" y="258.71000000000004" as="sourcePoint" />
            <mxPoint x="350" y="259.0799999999999" as="targetPoint" />
          </mxGeometry>
        </mxCell>
        <mxCell id="hX7-4YJbFAhG8RBtURKL-167" value="" style="shape=flexArrow;endArrow=classic;html=1;rounded=0;" edge="1" parent="hX7-4YJbFAhG8RBtURKL-160">
          <mxGeometry width="50" height="50" relative="1" as="geometry">
            <mxPoint x="6" y="183.25" as="sourcePoint" />
            <mxPoint x="146" y="183.25" as="targetPoint" />
          </mxGeometry>
        </mxCell>
        <mxCell id="hX7-4YJbFAhG8RBtURKL-168" value="DENDRITE_COMPUTE" style="rounded=1;whiteSpace=wrap;html=1;fontSize=16;fontStyle=1" vertex="1" parent="hX7-4YJbFAhG8RBtURKL-160">
          <mxGeometry x="340.19000000000005" y="427.5" width="251.5" height="93.5" as="geometry" />
        </mxCell>
        <mxCell id="hX7-4YJbFAhG8RBtURKL-169" value="" style="shape=flexArrow;endArrow=classic;startArrow=classic;html=1;rounded=0;fontSize=16;fontStyle=1;exitX=0.5;exitY=1;exitDx=0;exitDy=0;" edge="1" parent="hX7-4YJbFAhG8RBtURKL-160">
          <mxGeometry width="100" height="100" relative="1" as="geometry">
            <mxPoint x="399.5999999999999" y="90.76000000000022" as="sourcePoint" />
            <mxPoint x="399.5999999999999" y="160.76000000000022" as="targetPoint" />
          </mxGeometry>
        </mxCell>
        <mxCell id="hX7-4YJbFAhG8RBtURKL-170" value="TRACE_MEM" style="rounded=1;whiteSpace=wrap;html=1;fontSize=16;fontStyle=1" vertex="1" parent="hX7-4YJbFAhG8RBtURKL-160">
          <mxGeometry x="341.69000000000005" width="250" height="90" as="geometry" />
        </mxCell>
        <mxCell id="hX7-4YJbFAhG8RBtURKL-171" value="" style="shape=flexArrow;endArrow=classic;startArrow=classic;html=1;rounded=0;fontSize=16;fontStyle=1;exitX=0.5;exitY=1;exitDx=0;exitDy=0;" edge="1" parent="hX7-4YJbFAhG8RBtURKL-160">
          <mxGeometry width="100" height="100" relative="1" as="geometry">
            <mxPoint x="530.5999999999999" y="90.76000000000022" as="sourcePoint" />
            <mxPoint x="530.5999999999999" y="160.76000000000022" as="targetPoint" />
          </mxGeometry>
        </mxCell>
        <mxCell id="hX7-4YJbFAhG8RBtURKL-172" value="" style="shape=flexArrow;endArrow=classic;html=1;rounded=0;" edge="1" parent="hX7-4YJbFAhG8RBtURKL-160">
          <mxGeometry width="50" height="50" relative="1" as="geometry">
            <mxPoint x="146" y="347.1800000000003" as="sourcePoint" />
            <mxPoint y="347.5" as="targetPoint" />
          </mxGeometry>
        </mxCell>
        <mxCell id="hX7-4YJbFAhG8RBtURKL-173" value="&lt;b&gt;INPUT SPIKE&lt;/b&gt;" style="text;html=1;strokeColor=none;fillColor=none;align=center;verticalAlign=middle;whiteSpace=wrap;rounded=0;" vertex="1" parent="hX7-4YJbFAhG8RBtURKL-160">
          <mxGeometry x="42" y="147.5" width="62" height="30" as="geometry" />
        </mxCell>
        <mxCell id="hX7-4YJbFAhG8RBtURKL-174" value="&lt;b&gt;OUTPUT&amp;nbsp;&lt;br&gt;mem_potential&lt;br&gt;&lt;/b&gt;" style="text;html=1;strokeColor=none;fillColor=none;align=center;verticalAlign=middle;whiteSpace=wrap;rounded=0;" vertex="1" parent="hX7-4YJbFAhG8RBtURKL-160">
          <mxGeometry x="42" y="307.5" width="62" height="30" as="geometry" />
        </mxCell>
        <mxCell id="hX7-4YJbFAhG8RBtURKL-175" value="&lt;b&gt;INPUT&amp;nbsp;&lt;br&gt;WEIGHT&lt;br&gt;&lt;/b&gt;" style="text;html=1;strokeColor=none;fillColor=none;align=center;verticalAlign=middle;whiteSpace=wrap;rounded=0;" vertex="1" parent="hX7-4YJbFAhG8RBtURKL-160">
          <mxGeometry x="42" y="189.25" width="62" height="28.25" as="geometry" />
        </mxCell>
        <mxCell id="hX7-4YJbFAhG8RBtURKL-176" value="&lt;b&gt;OUTPUT&amp;nbsp;&lt;br&gt;WEIGHT&lt;br&gt;&lt;/b&gt;" style="text;html=1;strokeColor=none;fillColor=none;align=center;verticalAlign=middle;whiteSpace=wrap;rounded=0;" vertex="1" parent="hX7-4YJbFAhG8RBtURKL-160">
          <mxGeometry x="42" y="357.5" width="62" height="28.25" as="geometry" />
        </mxCell>
        <mxCell id="hX7-4YJbFAhG8RBtURKL-177" value="" style="curved=1;endArrow=classic;html=1;rounded=0;exitX=0.154;exitY=0.455;exitDx=0;exitDy=0;exitPerimeter=0;entryX=0.298;entryY=0.709;entryDx=0;entryDy=0;entryPerimeter=0;strokeColor=#007FFF;" edge="1" parent="hX7-4YJbFAhG8RBtURKL-160" source="hX7-4YJbFAhG8RBtURKL-168" target="hX7-4YJbFAhG8RBtURKL-162">
          <mxGeometry width="50" height="50" relative="1" as="geometry">
            <mxPoint x="359" y="440" as="sourcePoint" />
            <mxPoint x="409" y="390" as="targetPoint" />
            <Array as="points">
              <mxPoint x="379" y="390" />
            </Array>
          </mxGeometry>
        </mxCell>
        <mxCell id="hX7-4YJbFAhG8RBtURKL-178" value="&lt;font color=&quot;#007fff&quot;&gt;UPD_mem_V&lt;/font&gt;" style="edgeLabel;html=1;align=center;verticalAlign=middle;resizable=0;points=[];" vertex="1" connectable="0" parent="hX7-4YJbFAhG8RBtURKL-177">
          <mxGeometry x="0.2804" y="-5" relative="1" as="geometry">
            <mxPoint x="-21" y="45" as="offset" />
          </mxGeometry>
        </mxCell>
        <mxCell id="hX7-4YJbFAhG8RBtURKL-179" value="" style="curved=1;endArrow=classic;html=1;rounded=0;entryX=0.22;entryY=0.308;entryDx=0;entryDy=0;entryPerimeter=0;strokeColor=#00CC00;strokeWidth=2;exitX=0.518;exitY=0.098;exitDx=0;exitDy=0;exitPerimeter=0;" edge="1" parent="hX7-4YJbFAhG8RBtURKL-160" source="hX7-4YJbFAhG8RBtURKL-162">
          <mxGeometry width="50" height="50" relative="1" as="geometry">
            <mxPoint x="510" y="235.75" as="sourcePoint" />
            <mxPoint x="720.0000000000005" y="235.6979999999994" as="targetPoint" />
            <Array as="points">
              <mxPoint x="620" y="185.75" />
            </Array>
          </mxGeometry>
        </mxCell>
        <mxCell id="hX7-4YJbFAhG8RBtURKL-180" value="&lt;font color=&quot;#00cc00&quot;&gt;WEIGHT&lt;/font&gt;" style="edgeLabel;html=1;align=center;verticalAlign=middle;resizable=0;points=[];" vertex="1" connectable="0" parent="hX7-4YJbFAhG8RBtURKL-179">
          <mxGeometry x="-0.0354" y="-11" relative="1" as="geometry">
            <mxPoint x="13" y="-3" as="offset" />
          </mxGeometry>
        </mxCell>
        <mxCell id="hX7-4YJbFAhG8RBtURKL-181" value="" style="curved=1;endArrow=classic;html=1;rounded=0;entryX=0.259;entryY=0.352;entryDx=0;entryDy=0;entryPerimeter=0;exitX=0.3;exitY=0.866;exitDx=0;exitDy=0;exitPerimeter=0;strokeColor=#00CC00;strokeWidth=2;" edge="1" parent="hX7-4YJbFAhG8RBtURKL-160" source="hX7-4YJbFAhG8RBtURKL-161" target="hX7-4YJbFAhG8RBtURKL-162">
          <mxGeometry width="50" height="50" relative="1" as="geometry">
            <mxPoint x="680" y="320" as="sourcePoint" />
            <mxPoint x="320" y="220" as="targetPoint" />
            <Array as="points">
              <mxPoint x="630" y="320" />
              <mxPoint x="540" y="220" />
            </Array>
          </mxGeometry>
        </mxCell>
        <mxCell id="hX7-4YJbFAhG8RBtURKL-182" value="UPD_WEIGHT" style="edgeLabel;html=1;align=center;verticalAlign=middle;resizable=0;points=[];fontColor=#00CC00;" vertex="1" connectable="0" parent="hX7-4YJbFAhG8RBtURKL-181">
          <mxGeometry x="0.7145" y="2" relative="1" as="geometry">
            <mxPoint x="28" y="-1" as="offset" />
          </mxGeometry>
        </mxCell>
        <mxCell id="hX7-4YJbFAhG8RBtURKL-183" value="" style="group" vertex="1" connectable="0" parent="1">
          <mxGeometry x="-3308" y="7530" width="905" height="521" as="geometry" />
        </mxCell>
        <mxCell id="hX7-4YJbFAhG8RBtURKL-184" value="STDP_LEARNING" style="rounded=1;whiteSpace=wrap;html=1;fontSize=16;fontStyle=1" vertex="1" parent="hX7-4YJbFAhG8RBtURKL-183">
          <mxGeometry x="655" y="185.75" width="250" height="143.5" as="geometry" />
        </mxCell>
        <mxCell id="hX7-4YJbFAhG8RBtURKL-185" value="SNN_CONTROLLER" style="rounded=1;whiteSpace=wrap;html=1;fontSize=16;fontStyle=1" vertex="1" parent="hX7-4YJbFAhG8RBtURKL-183">
          <mxGeometry x="350" y="160.76000000000022" width="231.88" height="196.5" as="geometry" />
        </mxCell>
        <mxCell id="hX7-4YJbFAhG8RBtURKL-186" value="" style="shape=flexArrow;endArrow=classic;startArrow=classic;html=1;rounded=0;fontSize=16;fontStyle=1;entryX=0;entryY=0.5;entryDx=0;entryDy=0;exitX=1;exitY=0.5;exitDx=0;exitDy=0;" edge="1" parent="hX7-4YJbFAhG8RBtURKL-183" source="hX7-4YJbFAhG8RBtURKL-185" target="hX7-4YJbFAhG8RBtURKL-184">
          <mxGeometry width="100" height="100" relative="1" as="geometry">
            <mxPoint x="600" y="197.5" as="sourcePoint" />
            <mxPoint x="740" y="167.5" as="targetPoint" />
          </mxGeometry>
        </mxCell>
        <mxCell id="hX7-4YJbFAhG8RBtURKL-187" value="" style="shape=flexArrow;endArrow=classic;startArrow=classic;html=1;rounded=0;fontSize=16;fontStyle=1;exitX=0.5;exitY=1;exitDx=0;exitDy=0;" edge="1" parent="hX7-4YJbFAhG8RBtURKL-183" source="hX7-4YJbFAhG8RBtURKL-185" target="hX7-4YJbFAhG8RBtURKL-191">
          <mxGeometry width="100" height="100" relative="1" as="geometry">
            <mxPoint x="512.1199999999999" y="377.5" as="sourcePoint" />
            <mxPoint x="466" y="417.5" as="targetPoint" />
          </mxGeometry>
        </mxCell>
        <mxCell id="hX7-4YJbFAhG8RBtURKL-188" value="&lt;font style=&quot;font-size: 20px;&quot;&gt;&lt;b&gt;INTERFACE&lt;/b&gt;&lt;/font&gt;" style="rounded=1;whiteSpace=wrap;html=1;" vertex="1" parent="hX7-4YJbFAhG8RBtURKL-183">
          <mxGeometry x="146" y="100.5" width="130" height="315" as="geometry" />
        </mxCell>
        <mxCell id="hX7-4YJbFAhG8RBtURKL-189" value="" style="shape=flexArrow;endArrow=classic;startArrow=classic;html=1;rounded=0;fontSize=16;fontStyle=1;exitX=1;exitY=0.5;exitDx=0;exitDy=0;" edge="1" parent="hX7-4YJbFAhG8RBtURKL-183">
          <mxGeometry width="100" height="100" relative="1" as="geometry">
            <mxPoint x="276" y="270" as="sourcePoint" />
            <mxPoint x="350" y="271.0799999999999" as="targetPoint" />
          </mxGeometry>
        </mxCell>
        <mxCell id="hX7-4YJbFAhG8RBtURKL-190" value="" style="shape=flexArrow;endArrow=classic;html=1;rounded=0;" edge="1" parent="hX7-4YJbFAhG8RBtURKL-183">
          <mxGeometry width="50" height="50" relative="1" as="geometry">
            <mxPoint x="6" y="183.25" as="sourcePoint" />
            <mxPoint x="146" y="183.25" as="targetPoint" />
          </mxGeometry>
        </mxCell>
        <mxCell id="hX7-4YJbFAhG8RBtURKL-191" value="DENDRITE_COMPUTE" style="rounded=1;whiteSpace=wrap;html=1;fontSize=16;fontStyle=1" vertex="1" parent="hX7-4YJbFAhG8RBtURKL-183">
          <mxGeometry x="340.19000000000005" y="427.5" width="251.5" height="93.5" as="geometry" />
        </mxCell>
        <mxCell id="hX7-4YJbFAhG8RBtURKL-192" value="" style="shape=flexArrow;endArrow=classic;startArrow=classic;html=1;rounded=0;fontSize=16;fontStyle=1;exitX=0.5;exitY=1;exitDx=0;exitDy=0;" edge="1" parent="hX7-4YJbFAhG8RBtURKL-183">
          <mxGeometry width="100" height="100" relative="1" as="geometry">
            <mxPoint x="399.5999999999999" y="90.76000000000022" as="sourcePoint" />
            <mxPoint x="399.5999999999999" y="160.76000000000022" as="targetPoint" />
          </mxGeometry>
        </mxCell>
        <mxCell id="hX7-4YJbFAhG8RBtURKL-193" value="TRACE_MEM" style="rounded=1;whiteSpace=wrap;html=1;fontSize=16;fontStyle=1" vertex="1" parent="hX7-4YJbFAhG8RBtURKL-183">
          <mxGeometry x="341.69000000000005" width="250" height="90" as="geometry" />
        </mxCell>
        <mxCell id="hX7-4YJbFAhG8RBtURKL-194" value="" style="shape=flexArrow;endArrow=classic;startArrow=classic;html=1;rounded=0;fontSize=16;fontStyle=1;exitX=0.5;exitY=1;exitDx=0;exitDy=0;" edge="1" parent="hX7-4YJbFAhG8RBtURKL-183">
          <mxGeometry width="100" height="100" relative="1" as="geometry">
            <mxPoint x="530.5999999999999" y="90.76000000000022" as="sourcePoint" />
            <mxPoint x="530.5999999999999" y="160.76000000000022" as="targetPoint" />
          </mxGeometry>
        </mxCell>
        <mxCell id="hX7-4YJbFAhG8RBtURKL-195" value="" style="shape=flexArrow;endArrow=classic;html=1;rounded=0;" edge="1" parent="hX7-4YJbFAhG8RBtURKL-183">
          <mxGeometry width="50" height="50" relative="1" as="geometry">
            <mxPoint x="146" y="347.1800000000003" as="sourcePoint" />
            <mxPoint y="347.5" as="targetPoint" />
          </mxGeometry>
        </mxCell>
        <mxCell id="hX7-4YJbFAhG8RBtURKL-196" value="&lt;b&gt;INPUT SPIKE&lt;/b&gt;" style="text;html=1;strokeColor=none;fillColor=none;align=center;verticalAlign=middle;whiteSpace=wrap;rounded=0;" vertex="1" parent="hX7-4YJbFAhG8RBtURKL-183">
          <mxGeometry x="42" y="147.5" width="62" height="30" as="geometry" />
        </mxCell>
        <mxCell id="hX7-4YJbFAhG8RBtURKL-197" value="&lt;b&gt;OUTPUT&amp;nbsp;&lt;br&gt;mem_potential&lt;br&gt;&lt;/b&gt;" style="text;html=1;strokeColor=none;fillColor=none;align=center;verticalAlign=middle;whiteSpace=wrap;rounded=0;" vertex="1" parent="hX7-4YJbFAhG8RBtURKL-183">
          <mxGeometry x="42" y="307.5" width="62" height="30" as="geometry" />
        </mxCell>
        <mxCell id="hX7-4YJbFAhG8RBtURKL-198" value="&lt;b&gt;INPUT&amp;nbsp;&lt;br&gt;WEIGHT&lt;br&gt;&lt;/b&gt;" style="text;html=1;strokeColor=none;fillColor=none;align=center;verticalAlign=middle;whiteSpace=wrap;rounded=0;" vertex="1" parent="hX7-4YJbFAhG8RBtURKL-183">
          <mxGeometry x="42" y="189.25" width="62" height="28.25" as="geometry" />
        </mxCell>
        <mxCell id="hX7-4YJbFAhG8RBtURKL-199" value="&lt;b&gt;OUTPUT&amp;nbsp;&lt;br&gt;WEIGHT&lt;br&gt;&lt;/b&gt;" style="text;html=1;strokeColor=none;fillColor=none;align=center;verticalAlign=middle;whiteSpace=wrap;rounded=0;" vertex="1" parent="hX7-4YJbFAhG8RBtURKL-183">
          <mxGeometry x="42" y="357.5" width="62" height="28.25" as="geometry" />
        </mxCell>
        <mxCell id="hX7-4YJbFAhG8RBtURKL-200" value="" style="curved=1;endArrow=classic;html=1;rounded=0;entryX=0.246;entryY=0.221;entryDx=0;entryDy=0;entryPerimeter=0;exitX=0.293;exitY=0.658;exitDx=0;exitDy=0;exitPerimeter=0;strokeColor=#FF0000;fontColor=#FF3333;" edge="1" parent="hX7-4YJbFAhG8RBtURKL-183" source="hX7-4YJbFAhG8RBtURKL-185">
          <mxGeometry width="50" height="50" relative="1" as="geometry">
            <mxPoint x="407.97000000000025" y="372.90650000000096" as="sourcePoint" />
            <mxPoint x="169.97999999999956" y="329.1149999999998" as="targetPoint" />
            <Array as="points">
              <mxPoint x="351" y="330" />
              <mxPoint x="260" y="329" />
            </Array>
          </mxGeometry>
        </mxCell>
        <mxCell id="hX7-4YJbFAhG8RBtURKL-201" value="mem_V" style="edgeLabel;html=1;align=center;verticalAlign=middle;resizable=0;points=[];fontColor=#FF3333;" vertex="1" connectable="0" parent="hX7-4YJbFAhG8RBtURKL-200">
          <mxGeometry x="0.674" y="-2" relative="1" as="geometry">
            <mxPoint x="37" y="2" as="offset" />
          </mxGeometry>
        </mxCell>
        <mxCell id="hX7-4YJbFAhG8RBtURKL-202" value="" style="curved=1;endArrow=classic;html=1;rounded=0;exitX=0.552;exitY=0.2;exitDx=0;exitDy=0;exitPerimeter=0;entryX=0.545;entryY=0.667;entryDx=0;entryDy=0;entryPerimeter=0;strokeColor=#FF3333;" edge="1" parent="hX7-4YJbFAhG8RBtURKL-183" source="hX7-4YJbFAhG8RBtURKL-185" target="hX7-4YJbFAhG8RBtURKL-193">
          <mxGeometry width="50" height="50" relative="1" as="geometry">
            <mxPoint x="478" y="130" as="sourcePoint" />
            <mxPoint x="528" y="80" as="targetPoint" />
            <Array as="points">
              <mxPoint x="478" y="130" />
              <mxPoint x="478" y="80" />
            </Array>
          </mxGeometry>
        </mxCell>
        <mxCell id="hX7-4YJbFAhG8RBtURKL-203" value="TRACE" style="edgeLabel;html=1;align=center;verticalAlign=middle;resizable=0;points=[];fontColor=#FF3333;" vertex="1" connectable="0" parent="hX7-4YJbFAhG8RBtURKL-202">
          <mxGeometry x="0.0913" relative="1" as="geometry">
            <mxPoint as="offset" />
          </mxGeometry>
        </mxCell>
        <mxCell id="hX7-4YJbFAhG8RBtURKL-204" value="" style="curved=1;endArrow=classic;html=1;rounded=0;entryX=0.169;entryY=0.284;entryDx=0;entryDy=0;entryPerimeter=0;exitX=0.293;exitY=0.759;exitDx=0;exitDy=0;exitPerimeter=0;fontColor=#FF3333;strokeColor=#FF3333;" edge="1" parent="hX7-4YJbFAhG8RBtURKL-183" source="hX7-4YJbFAhG8RBtURKL-185">
          <mxGeometry width="50" height="50" relative="1" as="geometry">
            <mxPoint x="410.9699999999998" y="394.9494999999988" as="sourcePoint" />
            <mxPoint x="170.9699999999998" y="344.96000000000095" as="targetPoint" />
            <Array as="points">
              <mxPoint x="378" y="345" />
              <mxPoint x="273" y="345" />
            </Array>
          </mxGeometry>
        </mxCell>
        <mxCell id="hX7-4YJbFAhG8RBtURKL-205" value="weight" style="edgeLabel;html=1;align=center;verticalAlign=middle;resizable=0;points=[];fontColor=#FF3333;" vertex="1" connectable="0" parent="hX7-4YJbFAhG8RBtURKL-204">
          <mxGeometry x="0.6714" y="3" relative="1" as="geometry">
            <mxPoint x="12" y="-4" as="offset" />
          </mxGeometry>
        </mxCell>
        <mxCell id="hX7-4YJbFAhG8RBtURKL-206" value="" style="curved=1;endArrow=classic;html=1;rounded=0;entryX=0.169;entryY=0.284;entryDx=0;entryDy=0;entryPerimeter=0;fontColor=#FF3333;strokeColor=#FF3333;exitX=0.336;exitY=0.81;exitDx=0;exitDy=0;exitPerimeter=0;" edge="1" parent="1" source="hX7-4YJbFAhG8RBtURKL-185">
          <mxGeometry width="50" height="50" relative="1" as="geometry">
            <mxPoint x="-2919" y="7935" as="sourcePoint" />
            <mxPoint x="-3136.03" y="7893.960000000001" as="targetPoint" />
            <Array as="points">
              <mxPoint x="-2920" y="7880" />
              <mxPoint x="-2950" y="7890" />
              <mxPoint x="-3034" y="7894" />
            </Array>
          </mxGeometry>
        </mxCell>
        <mxCell id="hX7-4YJbFAhG8RBtURKL-207" value="neu_addr" style="edgeLabel;html=1;align=center;verticalAlign=middle;resizable=0;points=[];fontColor=#FF3333;" vertex="1" connectable="0" parent="hX7-4YJbFAhG8RBtURKL-206">
          <mxGeometry x="0.6362" relative="1" as="geometry">
            <mxPoint as="offset" />
          </mxGeometry>
        </mxCell>
      </root>
    </mxGraphModel>
  </diagram>
</mxfile>
